<svg xmlns="http://www.w3.org/2000/svg" xmlns:v="https://svgstorm.com"
viewBox = "0 0 1254 1254"
width="1254"
height="1254">
<g fill="None" fill-opacity="0.0" stroke="#FEFEFE" stroke-opacity="1.00" stroke-width="0.3"><path d="
M 0.00 1254.00 
L 1254.00 1254.00
L 1254.00 0.00
L 0.00 0.00
L 0.00 1254.00
M 390.00 263.00 
C 398.77 270.49 407.55 279.28 415.00 288.00
C 423.81 298.31 432.97 306.89 441.75 317.25 C 450.54 327.60 459.23 337.23 468.25 347.75 C 477.26 358.27 484.59 367.31 493.30 378.70 C 502.01 390.08 509.67 397.71 518.75 410.25 C 527.84 422.79 546.22 414.39 562.00 413.00 C 577.78 411.61 597.03 408.40 614.02 408.02 C 631.02 407.65 652.14 407.78 669.00 410.00 C 685.86 412.22 701.88 411.59 718.22 416.78 C 734.57 421.96 741.37 404.75 749.92 393.92 C 758.47 383.09 766.62 373.68 775.25 363.25 C 783.87 352.82 792.34 342.34 801.30 332.30 C 810.27 322.26 818.67 312.79 828.25 303.25 C 837.82 293.71 846.89 284.11 856.75 274.75 C 866.62 265.39 875.63 255.93 886.25 247.25 C 896.87 238.57 906.41 231.04 918.23 223.23 C 930.05 215.42 944.15 208.50 959.01 207.01 C 973.87 205.51 988.41 213.19 994.31 227.70 C 1000.20 242.20 1004.38 256.64 1006.00 273.00 C 1007.61 289.36 1010.00 308.94 1010.00 326.00
C 1010.30 329.08 1011.00 333.25 1011.00 337.00
C 1011.00 356.33 1011.00 375.67 1011.00 395.00
C 1011.00 399.08 1010.32 403.66 1010.00 407.00
C 1010.00 430.24 1007.33 455.42 1006.00 478.00 C 1004.67 500.58 998.33 523.19 997.02 545.02 C 995.72 566.86 984.72 589.77 988.98 611.02 C 993.23 632.28 1003.45 648.17 1005.78 670.22 C 1008.10 692.27 1011.80 718.93 1010.00 742.00 C 1008.20 765.07 1004.83 785.18 999.00 807.00
C 1008.18 806.64 1018.22 807.16 1027.00 808.00 C 1035.78 808.84 1045.79 809.33 1054.02 810.98 C 1062.26 812.62 1072.64 812.49 1080.01 814.99 C 1087.37 817.50 1096.61 818.23 1102.68 821.32 C 1108.75 824.41 1119.81 824.94 1122.75 831.25 C 1125.69 837.55 1108.64 832.79 1102.99 831.01 C 1097.35 829.23 1086.37 827.63 1078.93 826.07 C 1071.49 824.52 1060.44 824.05 1052.00 823.00 C 1043.56 821.95 1033.07 821.36 1024.00 821.00 C 1014.93 820.64 1004.51 819.19 995.00 820.00
C 995.95 816.33 997.26 812.76 998.00 809.00
C 996.52 806.67 987.72 808.00 985.00 808.00
C 937.78 808.00 890.70 817.30 848.00 833.00
C 894.97 827.31 944.37 819.57 994.00 820.00
C 990.53 838.60 979.77 854.98 972.00 872.00
C 980.85 873.68 989.98 874.99 998.67 877.33 C 1007.36 879.67 1016.38 881.53 1025.02 883.98 C 1033.67 886.42 1041.17 889.26 1049.69 892.31 C 1058.21 895.35 1064.47 897.96 1073.08 901.92 C 1081.68 905.89 1084.70 908.74 1093.75 914.25 C 1102.79 919.77 1100.20 927.10 1090.77 921.23 C 1081.35 915.36 1076.60 915.18 1067.78 911.22 C 1058.95 907.27 1052.39 905.51 1043.78 902.22 C 1035.17 898.93 1026.71 897.70 1017.98 895.02 C 1009.24 892.35 1000.75 890.24 991.78 888.22 C 982.81 886.21 973.19 884.30 964.00 883.00
C 956.61 898.22 942.79 910.29 933.00 924.00
C 939.69 926.08 945.13 930.29 951.25 933.75 C 957.36 937.21 962.39 940.46 968.25 944.75 C 974.11 949.05 977.56 952.39 983.75 957.25 C 989.94 962.11 991.85 964.18 997.77 971.23 C 1003.69 978.28 999.49 982.66 992.75 976.25 C 986.01 969.83 982.75 969.42 976.75 964.25 C 970.75 959.08 965.70 957.49 959.77 953.23 C 953.84 948.97 948.46 946.18 942.31 942.70 C 936.15 939.21 930.33 935.84 924.00 933.00
C 921.91 935.09 919.21 937.11 917.00 939.00
C 909.93 945.04 903.47 950.35 896.25 956.25 C 889.03 962.15 881.11 967.02 873.30 972.30 C 865.49 977.58 857.70 982.66 849.30 987.30 C 840.91 991.95 832.64 996.44 823.77 1000.77 C 814.90 1005.10 805.69 1008.53 796.32 1012.32 C 786.95 1016.11 777.67 1019.44 767.78 1022.78 C 757.88 1026.11 747.55 1028.67 736.99 1030.99 C 726.44 1033.31 716.17 1036.45 704.98 1037.98 C 693.79 1039.50 681.79 1041.38 670.00 1042.00 C 658.21 1042.62 645.14 1044.15 633.00 1044.00 C 620.86 1043.85 606.72 1044.29 595.00 1043.00 C 583.28 1041.71 571.27 1040.62 560.00 1039.00 C 548.73 1037.39 537.67 1035.33 526.99 1033.01 C 516.32 1030.68 506.06 1028.01 495.99 1025.01 C 485.92 1022.01 476.50 1018.53 466.98 1015.03 C 457.45 1011.52 448.33 1007.69 439.32 1003.68 C 430.31 999.66 421.90 995.13 413.31 990.70 C 404.71 986.26 396.95 981.20 388.77 976.23 C 380.59 971.26 373.44 966.08 365.77 960.23 C 358.10 954.38 350.95 950.66 344.25 942.75 C 337.54 934.85 328.90 931.64 320.92 938.92 C 312.94 946.20 303.49 946.66 296.30 953.30 C 289.12 959.94 279.27 962.38 273.25 969.25 C 267.24 976.13 252.17 984.21 256.92 973.92 C 261.66 963.63 269.40 961.45 276.25 954.25 C 283.09 947.05 291.10 943.55 298.75 937.75 C 306.39 931.95 315.50 928.16 324.00 924.00
C 315.46 912.90 303.81 902.03 296.70 890.30 C 289.59 878.58 285.76 885.11 275.93 885.93 C 266.09 886.74 259.75 890.33 250.93 891.93 C 242.10 893.52 234.56 896.26 226.33 898.33 C 218.10 900.40 210.99 904.38 202.98 905.98 C 194.96 907.57 188.50 913.56 180.78 914.78 C 173.05 916.00 167.04 924.60 159.31 924.31 C 151.57 924.01 162.95 912.97 168.70 910.70 C 174.44 908.42 182.15 902.26 189.07 900.07 C 195.99 897.89 203.46 892.96 211.07 891.07 C 218.68 889.19 226.22 885.05 234.22 883.22 C 242.23 881.40 250.92 879.17 259.07 877.07 C 267.22 874.97 276.57 873.42 285.00 872.00
C 275.06 855.72 267.08 838.23 262.00 820.00
C 312.06 819.06 361.65 827.98 409.00 833.00
C 365.60 815.79 317.33 809.17 269.00 808.00
C 265.33 808.00 261.67 808.00 258.00 808.00
C 256.46 810.47 262.57 816.95 261.00 820.00
C 248.69 819.89 234.90 820.01 223.00 821.00 C 211.10 821.99 199.00 822.63 187.78 824.78 C 176.55 826.92 164.11 826.60 153.93 830.93 C 143.74 835.26 127.81 834.88 139.23 827.23 C 150.65 819.58 157.52 821.07 169.02 817.02 C 180.53 812.98 190.13 813.06 202.00 811.00 C 213.87 808.94 226.45 807.55 239.00 808.00
C 244.26 807.49 251.03 806.30 257.00 807.00
C 259.62 803.01 252.57 795.25 253.02 789.98 C 253.48 784.70 250.13 776.98 250.00 771.00 C 249.88 765.01 246.97 758.41 247.07 751.93 C 247.17 745.44 246.74 737.38 246.07 730.93 C 245.40 724.48 245.64 715.50 246.00 709.00 C 246.36 702.50 247.93 695.55 248.00 689.00 C 248.07 682.45 250.34 676.29 250.99 669.99 C 251.64 663.69 253.36 657.84 254.93 651.93 C 256.49 646.01 257.46 640.04 259.33 634.33 C 261.19 628.62 262.93 623.55 264.93 617.93 C 266.92 612.31 269.44 605.36 268.00 599.00 C 266.56 592.64 266.01 586.36 265.00 580.00 C 263.99 573.64 262.37 568.04 261.22 561.78 C 260.07 555.52 260.07 549.29 259.00 543.00 C 257.93 536.71 256.37 530.57 256.00 524.00 C 255.63 517.43 253.68 511.55 253.07 504.93 C 252.47 498.31 251.93 491.44 251.22 484.78 C 250.52 478.12 249.76 471.66 249.07 464.93 C 248.38 458.20 248.04 451.00 248.00 444.00 C 247.96 437.00 246.67 430.19 247.00 423.00 C 247.33 415.81 246.02 409.20 246.00 402.00 C 245.98 394.80 246.16 387.26 246.00 380.00 C 245.84 372.74 246.42 365.26 246.00 358.00 C 245.58 350.74 246.81 344.01 247.00 337.00 C 247.19 329.99 247.02 322.68 248.00 316.00 C 248.98 309.32 248.79 302.21 249.78 295.78 C 250.77 289.34 251.01 283.19 251.99 276.99 C 252.97 270.79 253.66 263.91 254.99 257.99 C 256.32 252.08 257.98 246.24 259.78 240.78 C 261.57 235.32 263.40 230.04 266.31 225.31 C 269.21 220.57 271.33 216.56 276.25 213.25 C 281.17 209.93 285.35 207.56 292.02 207.02 C 298.70 206.49 305.02 206.59 312.22 208.78 C 319.42 210.97 319.58 210.35 328.23 214.77 C 336.88 219.19 346.94 226.02 354.75 232.25 C 362.55 238.49 371.21 245.90 378.70 252.30 C 386.18 258.70 383.48 257.43 390.00 263.00 Z"/>
</g>
<g fill="None" fill-opacity="0.0" stroke="#111113" stroke-opacity="1.00" stroke-width="0.3"><path d="
M 257.00 807.00 
C 255.19 809.76 242.38 808.00 239.00 808.00
C 226.45 807.55 213.87 808.94 202.00 811.00 C 190.13 813.06 180.53 812.98 169.02 817.02 C 157.52 821.07 150.65 819.58 139.23 827.23 C 127.81 834.88 143.74 835.26 153.93 830.93 C 164.11 826.60 176.55 826.92 187.78 824.78 C 199.00 822.63 211.10 821.99 223.00 821.00 C 234.90 820.01 248.69 819.89 261.00 820.00
C 262.57 816.95 256.46 810.47 258.00 808.00
C 259.83 805.08 266.99 807.81 269.00 808.00
C 317.33 809.17 365.60 815.79 409.00 833.00
C 361.65 827.98 312.06 819.06 262.00 820.00
C 267.08 838.23 275.06 855.72 285.00 872.00
C 276.57 873.42 267.22 874.97 259.07 877.07 C 250.92 879.17 242.23 881.40 234.22 883.22 C 226.22 885.05 218.68 889.19 211.07 891.07 C 203.46 892.96 195.99 897.89 189.07 900.07 C 182.15 902.26 174.44 908.42 168.70 910.70 C 162.95 912.97 151.57 924.01 159.31 924.31 C 167.04 924.60 173.05 916.00 180.78 914.78 C 188.50 913.56 194.96 907.57 202.98 905.98 C 210.99 904.38 218.10 900.40 226.33 898.33 C 234.56 896.26 242.10 893.52 250.93 891.93 C 259.75 890.33 266.09 886.74 275.93 885.93 C 285.76 885.11 289.59 878.58 296.70 890.30 C 303.81 902.03 315.46 912.90 324.00 924.00
C 315.50 928.16 306.39 931.95 298.75 937.75 C 291.10 943.55 283.09 947.05 276.25 954.25 C 269.40 961.45 261.66 963.63 256.92 973.92 C 252.17 984.21 267.24 976.13 273.25 969.25 C 279.27 962.38 289.12 959.94 296.30 953.30 C 303.49 946.66 312.94 946.20 320.92 938.92 C 328.90 931.64 337.54 934.85 344.25 942.75 C 350.95 950.66 358.10 954.38 365.77 960.23 C 373.44 966.08 380.59 971.26 388.77 976.23 C 396.95 981.20 404.71 986.26 413.31 990.70 C 421.90 995.13 430.31 999.66 439.32 1003.68 C 448.33 1007.69 457.45 1011.52 466.98 1015.03 C 476.50 1018.53 485.92 1022.01 495.99 1025.01 C 506.06 1028.01 516.32 1030.68 526.99 1033.01 C 537.67 1035.33 548.73 1037.39 560.00 1039.00 C 571.27 1040.62 583.28 1041.71 595.00 1043.00 C 606.72 1044.29 620.86 1043.85 633.00 1044.00 C 645.14 1044.15 658.21 1042.62 670.00 1042.00 C 681.79 1041.38 693.79 1039.50 704.98 1037.98 C 716.17 1036.45 726.44 1033.31 736.99 1030.99 C 747.55 1028.67 757.88 1026.11 767.78 1022.78 C 777.67 1019.44 786.95 1016.11 796.32 1012.32 C 805.69 1008.53 814.90 1005.10 823.77 1000.77 C 832.64 996.44 840.91 991.95 849.30 987.30 C 857.70 982.66 865.49 977.58 873.30 972.30 C 881.11 967.02 889.03 962.15 896.25 956.25 C 903.47 950.35 909.93 945.04 917.00 939.00
C 919.09 936.91 920.96 934.04 923.00 932.00
C 917.07 932.61 910.96 924.34 904.77 923.23 C 898.58 922.12 892.15 917.09 885.77 915.23 C 879.39 913.37 872.55 910.01 865.93 908.07 C 859.31 906.14 852.06 902.75 845.00 902.00
C 852.87 897.46 866.43 902.27 876.00 904.00 C 885.57 905.72 895.42 909.55 904.68 912.32 C 913.94 915.10 922.08 919.33 931.00 923.00
C 932.58 925.24 926.05 930.95 924.00 933.00
C 930.33 935.84 936.15 939.21 942.31 942.70 C 948.46 946.18 953.84 948.97 959.77 953.23 C 965.70 957.49 970.75 959.08 976.75 964.25 C 982.75 969.42 986.01 969.83 992.75 976.25 C 999.49 982.66 1003.69 978.28 997.77 971.23 C 991.85 964.18 989.94 962.11 983.75 957.25 C 977.56 952.39 974.11 949.05 968.25 944.75 C 962.39 940.46 957.36 937.21 951.25 933.75 C 945.13 930.29 939.69 926.08 933.00 924.00
C 942.79 910.29 956.61 898.22 964.00 883.00
C 973.19 884.30 982.81 886.21 991.78 888.22 C 1000.75 890.24 1009.24 892.35 1017.98 895.02 C 1026.71 897.70 1035.17 898.93 1043.78 902.22 C 1052.39 905.51 1058.95 907.27 1067.78 911.22 C 1076.60 915.18 1081.35 915.36 1090.77 921.23 C 1100.20 927.10 1102.79 919.77 1093.75 914.25 C 1084.70 908.74 1081.68 905.89 1073.08 901.92 C 1064.47 897.96 1058.21 895.35 1049.69 892.31 C 1041.17 889.26 1033.67 886.42 1025.02 883.98 C 1016.38 881.53 1007.36 879.67 998.67 877.33 C 989.98 874.99 980.85 873.68 972.00 872.00
C 979.77 854.98 990.53 838.60 994.00 820.00
C 944.37 819.57 894.97 827.31 848.00 833.00
C 890.70 817.30 937.78 808.00 985.00 808.00
C 989.04 807.61 997.59 804.88 998.00 809.00
C 997.26 812.76 995.95 816.33 995.00 820.00
C 1004.51 819.19 1014.93 820.64 1024.00 821.00 C 1033.07 821.36 1043.56 821.95 1052.00 823.00 C 1060.44 824.05 1071.49 824.52 1078.93 826.07 C 1086.37 827.63 1097.35 829.23 1102.99 831.01 C 1108.64 832.79 1125.69 837.55 1122.75 831.25 C 1119.81 824.94 1108.75 824.41 1102.68 821.32 C 1096.61 818.23 1087.37 817.50 1080.01 814.99 C 1072.64 812.49 1062.26 812.62 1054.02 810.98 C 1045.79 809.33 1035.78 808.84 1027.00 808.00 C 1018.22 807.16 1008.18 806.64 999.00 807.00
C 1004.83 785.18 1008.20 765.07 1010.00 742.00 C 1011.80 718.93 1008.10 692.27 1005.78 670.22 C 1003.45 648.17 993.23 632.28 988.98 611.02 C 984.72 589.77 995.72 566.86 997.02 545.02 C 998.33 523.19 1004.67 500.58 1006.00 478.00 C 1007.33 455.42 1010.00 430.24 1010.00 407.00
C 1010.00 402.92 1010.68 398.34 1011.00 395.00
C 1011.00 375.67 1011.00 356.33 1011.00 337.00
C 1010.70 333.92 1010.00 329.75 1010.00 326.00
C 1010.00 308.94 1007.61 289.36 1006.00 273.00 C 1004.38 256.64 1000.20 242.20 994.31 227.70 C 988.41 213.19 973.87 205.51 959.01 207.01 C 944.15 208.50 930.05 215.42 918.23 223.23 C 906.41 231.04 896.87 238.57 886.25 247.25 C 875.63 255.93 866.62 265.39 856.75 274.75 C 846.89 284.11 837.82 293.71 828.25 303.25 C 818.67 312.79 810.27 322.26 801.30 332.30 C 792.34 342.34 783.87 352.82 775.25 363.25 C 766.62 373.68 758.47 383.09 749.92 393.92 C 741.37 404.75 734.57 421.96 718.22 416.78 C 701.88 411.59 685.86 412.22 669.00 410.00 C 652.14 407.78 631.02 407.65 614.02 408.02 C 597.03 408.40 577.78 411.61 562.00 413.00 C 546.22 414.39 527.84 422.79 518.75 410.25 C 509.67 397.71 502.01 390.08 493.30 378.70 C 484.59 367.31 477.26 358.27 468.25 347.75 C 459.23 337.23 450.54 327.60 441.75 317.25 C 432.97 306.89 423.81 298.31 415.00 288.00
C 406.75 279.75 398.20 271.20 390.00 263.00
C 383.48 257.43 386.18 258.70 378.70 252.30 C 371.21 245.90 362.55 238.49 354.75 232.25 C 346.94 226.02 336.88 219.19 328.23 214.77 C 319.58 210.35 319.42 210.97 312.22 208.78 C 305.02 206.59 298.70 206.49 292.02 207.02 C 285.35 207.56 281.17 209.93 276.25 213.25 C 271.33 216.56 269.21 220.57 266.31 225.31 C 263.40 230.04 261.57 235.32 259.78 240.78 C 257.98 246.24 256.32 252.08 254.99 257.99 C 253.66 263.91 252.97 270.79 251.99 276.99 C 251.01 283.19 250.77 289.34 249.78 295.78 C 248.79 302.21 248.98 309.32 248.00 316.00 C 247.02 322.68 247.19 329.99 247.00 337.00 C 246.81 344.01 245.58 350.74 246.00 358.00 C 246.42 365.26 245.84 372.74 246.00 380.00 C 246.16 387.26 245.98 394.80 246.00 402.00 C 246.02 409.20 247.33 415.81 247.00 423.00 C 246.67 430.19 247.96 437.00 248.00 444.00 C 248.04 451.00 248.38 458.20 249.07 464.93 C 249.76 471.66 250.52 478.12 251.22 484.78 C 251.93 491.44 252.47 498.31 253.07 504.93 C 253.68 511.55 255.63 517.43 256.00 524.00 C 256.37 530.57 257.93 536.71 259.00 543.00 C 260.07 549.29 260.07 555.52 261.22 561.78 C 262.37 568.04 263.99 573.64 265.00 580.00 C 266.01 586.36 266.56 592.64 268.00 599.00 C 269.44 605.36 266.92 612.31 264.93 617.93 C 262.93 623.55 261.19 628.62 259.33 634.33 C 257.46 640.04 256.49 646.01 254.93 651.93 C 253.36 657.84 251.64 663.69 250.99 669.99 C 250.34 676.29 248.07 682.45 248.00 689.00 C 247.93 695.55 246.36 702.50 246.00 709.00 C 245.64 715.50 245.40 724.48 246.07 730.93 C 246.74 737.38 247.17 745.44 247.07 751.93 C 246.97 758.41 249.88 765.01 250.00 771.00 C 250.13 776.98 253.48 784.70 253.02 789.98 C 252.57 795.25 259.62 803.01 257.00 807.00
M 310.00 558.00 
C 308.17 548.44 306.09 539.57 304.02 529.98 C 301.95 520.38 300.45 510.95 299.00 501.00 C 297.55 491.05 295.10 481.23 294.02 470.98 C 292.95 460.72 292.29 450.43 291.00 440.00 C 289.71 429.57 289.48 418.05 288.67 407.33 C 287.86 396.61 287.97 384.96 288.00 374.00 C 288.03 363.04 288.06 349.66 288.00 339.00 C 287.94 328.34 289.15 316.65 289.99 306.99 C 290.83 297.33 292.73 285.32 293.99 276.99 C 295.26 268.66 301.01 256.47 309.67 258.33 C 318.33 260.20 323.33 267.18 329.75 272.25 C 336.18 277.31 341.49 284.02 347.25 289.75 C 353.00 295.49 357.31 302.10 362.77 308.23 C 368.23 314.36 373.02 321.48 377.92 328.08 C 382.82 334.68 387.61 341.04 391.92 348.08 C 396.23 355.13 401.05 361.42 405.25 368.75 C 409.46 376.07 413.75 383.50 417.77 391.23 C 421.79 398.96 425.96 405.09 429.31 413.70 C 432.65 422.30 438.34 427.91 439.93 438.07 C 441.52 448.23 420.16 444.20 415.00 443.00 C 409.83 441.81 385.44 437.13 388.33 446.67 C 391.22 456.22 395.65 457.53 402.30 466.70 C 408.95 475.86 399.91 483.08 389.00 480.00 C 378.09 476.92 364.64 484.92 372.30 493.70 C 379.96 502.48 377.21 508.05 368.75 512.75 C 360.30 517.45 355.25 521.91 347.92 526.92 C 340.58 531.93 335.79 536.72 329.25 542.25 C 322.70 547.78 316.80 553.35 310.00 558.00
M 947.00 558.00 
C 939.84 554.09 934.77 548.20 928.25 542.75 C 921.73 537.30 915.93 532.24 908.77 527.23 C 901.61 522.22 897.15 517.66 888.92 513.08 C 880.69 508.51 875.74 502.70 884.75 493.75 C 893.77 484.81 880.19 478.24 870.00 481.00 C 859.81 483.76 847.34 477.44 853.77 467.77 C 860.21 458.10 864.14 457.43 868.30 447.30 C 872.47 437.17 849.25 441.84 843.93 442.93 C 838.60 444.01 817.13 448.89 816.08 439.92 C 815.02 430.95 823.35 423.82 825.77 415.77 C 828.20 407.72 834.15 400.31 837.77 392.77 C 841.39 385.23 845.66 378.10 849.92 370.92 C 854.17 363.74 858.68 356.21 863.30 349.30 C 867.93 342.40 872.88 335.40 877.75 328.75 C 882.63 322.10 887.16 315.87 892.75 309.75 C 898.34 303.63 902.74 296.55 908.75 290.75 C 914.77 284.96 919.15 279.17 925.75 273.75 C 932.35 268.34 937.49 262.16 946.08 259.08 C 954.66 255.99 961.17 265.18 962.78 274.22 C 964.38 283.26 966.70 294.85 967.00 305.00 C 967.30 315.15 969.64 327.21 969.00 338.00 C 968.36 348.79 969.85 361.16 969.00 372.00 C 968.16 382.84 968.27 395.13 968.00 406.00 C 967.73 416.87 965.30 426.31 965.01 437.01 C 964.71 447.71 963.30 458.70 962.01 469.01 C 960.72 479.31 959.71 488.97 958.01 499.01 C 956.30 509.05 954.81 519.08 953.01 529.01 C 951.21 538.94 948.66 548.06 947.00 558.00
M 468.00 628.00 
C 497.55 630.86 526.24 649.31 540.77 676.23 C 555.30 703.15 569.23 744.24 549.08 772.08 C 528.94 799.92 490.52 805.31 458.93 802.07 C 427.33 798.84 403.17 781.45 384.25 755.75 C 365.32 730.06 362.84 691.33 384.77 666.77 C 406.70 642.21 434.26 624.73 468.00 628.00
M 891.00 703.00 
C 891.67 706.76 891.60 710.32 891.00 714.00
C 889.35 744.48 869.44 767.95 844.25 786.25 C 819.07 804.56 777.43 806.91 746.33 797.67 C 715.23 788.43 694.68 755.96 702.00 724.00 C 709.32 692.04 721.08 668.93 745.08 647.08 C 769.09 625.23 810.88 623.31 837.08 636.92 C 863.27 650.54 888.97 673.09 891.00 703.00
M 409.00 867.00 
C 396.10 871.30 378.86 870.41 365.00 872.00 C 351.14 873.59 334.67 876.25 321.33 877.33 C 307.99 878.41 290.47 889.22 286.00 872.00
C 325.65 865.54 368.46 860.48 409.00 867.00
M 971.00 872.00 
C 965.45 888.24 949.49 879.32 936.00 878.00 C 922.50 876.69 906.89 873.56 892.78 872.22 C 878.67 870.88 862.09 870.09 848.00 868.00
C 866.69 861.53 889.48 864.39 910.00 865.00 C 930.52 865.61 951.23 868.09 971.00 872.00
M 412.00 901.00 
C 401.66 903.94 390.75 908.16 380.77 911.77 C 370.79 915.39 360.20 919.22 350.92 923.92 C 341.65 928.63 329.93 936.85 325.00 923.00
C 352.38 911.61 382.14 899.60 412.00 901.00 Z"/>
</g>
<g fill="None" fill-opacity="0.0" stroke="#FBFBFB" stroke-opacity="1.00" stroke-width="0.3"><path d="
M 310.00 558.00 
C 316.80 553.35 322.70 547.78 329.25 542.25 C 335.79 536.72 340.58 531.93 347.92 526.92 C 355.25 521.91 360.30 517.45 368.75 512.75 C 377.21 508.05 379.96 502.48 372.30 493.70 C 364.64 484.92 378.09 476.92 389.00 480.00 C 399.91 483.08 408.95 475.86 402.30 466.70 C 395.65 457.53 391.22 456.22 388.33 446.67 C 385.44 437.13 409.83 441.81 415.00 443.00 C 420.16 444.20 441.52 448.23 439.93 438.07 C 438.34 427.91 432.65 422.30 429.31 413.70 C 425.96 405.09 421.79 398.96 417.77 391.23 C 413.75 383.50 409.46 376.07 405.25 368.75 C 401.05 361.42 396.23 355.13 391.92 348.08 C 387.61 341.04 382.82 334.68 377.92 328.08 C 373.02 321.48 368.23 314.36 362.77 308.23 C 357.31 302.10 353.00 295.49 347.25 289.75 C 341.49 284.02 336.18 277.31 329.75 272.25 C 323.33 267.18 318.33 260.20 309.67 258.33 C 301.01 256.47 295.26 268.66 293.99 276.99 C 292.73 285.32 290.83 297.33 289.99 306.99 C 289.15 316.65 287.94 328.34 288.00 339.00 C 288.06 349.66 288.03 363.04 288.00 374.00 C 287.97 384.96 287.86 396.61 288.67 407.33 C 289.48 418.05 289.71 429.57 291.00 440.00 C 292.29 450.43 292.95 460.72 294.02 470.98 C 295.10 481.23 297.55 491.05 299.00 501.00 C 300.45 510.95 301.95 520.38 304.02 529.98 C 306.09 539.57 308.17 548.44 310.00 558.00 Z"/>
</g>
<g fill="None" fill-opacity="0.0" stroke="#FBFBFB" stroke-opacity="1.00" stroke-width="0.3"><path d="
M 947.00 558.00 
C 948.66 548.06 951.21 538.94 953.01 529.01 C 954.81 519.08 956.30 509.05 958.01 499.01 C 959.71 488.97 960.72 479.31 962.01 469.01 C 963.30 458.70 964.71 447.71 965.01 437.01 C 965.30 426.31 967.73 416.87 968.00 406.00 C 968.27 395.13 968.16 382.84 969.00 372.00 C 969.85 361.16 968.36 348.79 969.00 338.00 C 969.64 327.21 967.30 315.15 967.00 305.00 C 966.70 294.85 964.38 283.26 962.78 274.22 C 961.17 265.18 954.66 255.99 946.08 259.08 C 937.49 262.16 932.35 268.34 925.75 273.75 C 919.15 279.17 914.77 284.96 908.75 290.75 C 902.74 296.55 898.34 303.63 892.75 309.75 C 887.16 315.87 882.63 322.10 877.75 328.75 C 872.88 335.40 867.93 342.40 863.30 349.30 C 858.68 356.21 854.17 363.74 849.92 370.92 C 845.66 378.10 841.39 385.23 837.77 392.77 C 834.15 400.31 828.20 407.72 825.77 415.77 C 823.35 423.82 815.02 430.95 816.08 439.92 C 817.13 448.89 838.60 444.01 843.93 442.93 C 849.25 441.84 872.47 437.17 868.30 447.30 C 864.14 457.43 860.21 458.10 853.77 467.77 C 847.34 477.44 859.81 483.76 870.00 481.00 C 880.19 478.24 893.77 484.81 884.75 493.75 C 875.74 502.70 880.69 508.51 888.92 513.08 C 897.15 517.66 901.61 522.22 908.77 527.23 C 915.93 532.24 921.73 537.30 928.25 542.75 C 934.77 548.20 939.84 554.09 947.00 558.00 Z"/>
</g>
<g fill="None" fill-opacity="0.0" stroke="#808082" stroke-opacity="1.00" stroke-width="0.3"><path d="
M 415.00 288.00 
C 407.55 279.28 398.77 270.49 390.00 263.00
C 398.20 271.20 406.75 279.75 415.00 288.00 Z"/>
</g>
<g fill="None" fill-opacity="0.0" stroke="#858486" stroke-opacity="1.00" stroke-width="0.3"><path d="
M 1011.00 337.00 
C 1011.00 333.25 1010.30 329.08 1010.00 326.00
C 1010.00 329.75 1010.70 333.92 1011.00 337.00 Z"/>
</g>
<g fill="None" fill-opacity="0.0" stroke="#7E7D7F" stroke-opacity="1.00" stroke-width="0.3"><path d="
M 1010.00 407.00 
C 1010.32 403.66 1011.00 399.08 1011.00 395.00
C 1010.68 398.34 1010.00 402.92 1010.00 407.00 Z"/>
</g>
<g fill="None" fill-opacity="0.0" stroke="#FBFAFB" stroke-opacity="1.00" stroke-width="0.3"><path d="
M 468.00 628.00 
C 434.26 624.73 406.70 642.21 384.77 666.77 C 362.84 691.33 365.32 730.06 384.25 755.75 C 403.17 781.45 427.33 798.84 458.93 802.07 C 490.52 805.31 528.94 799.92 549.08 772.08 C 569.23 744.24 555.30 703.15 540.77 676.23 C 526.24 649.31 497.55 630.86 468.00 628.00
M 492.00 707.00 
C 492.52 712.35 492.51 718.72 492.00 724.00
C 492.00 734.20 490.10 744.18 488.01 754.01 C 485.92 763.84 481.89 769.33 478.08 779.08 C 474.26 788.82 463.43 787.85 459.70 778.30 C 455.97 768.75 452.05 763.00 450.02 752.98 C 447.99 742.95 446.00 732.66 446.00 722.00
C 445.67 718.54 445.67 714.39 446.00 711.00
C 446.00 700.41 447.89 681.77 451.93 672.93 C 455.96 664.08 456.54 647.20 467.08 644.08 C 477.62 640.96 482.68 661.07 485.77 669.23 C 488.86 677.39 492.00 697.09 492.00 707.00 Z"/>
</g>
<g fill="None" fill-opacity="0.0" stroke="#FAFAFA" stroke-opacity="1.00" stroke-width="0.3"><path d="
M 891.00 714.00 
C 891.19 710.43 891.24 706.57 891.00 703.00
C 888.97 673.09 863.27 650.54 837.08 636.92 C 810.88 623.31 769.09 625.23 745.08 647.08 C 721.08 668.93 709.32 692.04 702.00 724.00 C 694.68 755.96 715.23 788.43 746.33 797.67 C 777.43 806.91 819.07 804.56 844.25 786.25 C 869.44 767.95 889.35 744.48 891.00 714.00
M 767.00 723.00 
C 766.51 717.93 766.39 712.03 767.00 707.00
C 767.30 692.11 772.41 678.25 775.32 664.32 C 778.24 650.39 790.80 636.98 798.77 652.23 C 806.74 667.48 808.51 675.78 811.33 691.67 C 814.15 707.57 813.96 723.30 811.02 739.02 C 808.09 754.75 807.15 763.74 798.69 778.70 C 790.24 793.65 778.57 780.65 775.07 766.93 C 771.57 753.20 767.00 738.11 767.00 723.00 Z"/>
</g>
<g fill="None" fill-opacity="0.0" stroke="#121213" stroke-opacity="1.00" stroke-width="0.3"><path d="
M 446.00 711.00 
C 446.00 714.67 446.00 718.33 446.00 722.00
C 446.00 732.66 447.99 742.95 450.02 752.98 C 452.05 763.00 455.97 768.75 459.70 778.30 C 463.43 787.85 474.26 788.82 478.08 779.08 C 481.89 769.33 485.92 763.84 488.01 754.01 C 490.10 744.18 492.00 734.20 492.00 724.00
C 492.00 718.33 492.00 712.67 492.00 707.00
C 492.00 697.09 488.86 677.39 485.77 669.23 C 482.68 661.07 477.62 640.96 467.08 644.08 C 456.54 647.20 455.96 664.08 451.93 672.93 C 447.89 681.77 446.00 700.41 446.00 711.00 Z"/>
</g>
<g fill="None" fill-opacity="0.0" stroke="#121214" stroke-opacity="1.00" stroke-width="0.3"><path d="
M 767.00 707.00 
C 766.89 712.33 767.00 717.67 767.00 723.00
C 767.00 738.11 771.57 753.20 775.07 766.93 C 778.57 780.65 790.24 793.65 798.69 778.70 C 807.15 763.74 808.09 754.75 811.02 739.02 C 813.96 723.30 814.15 707.57 811.33 691.67 C 808.51 675.78 806.74 667.48 798.77 652.23 C 790.80 636.98 778.24 650.39 775.32 664.32 C 772.41 678.25 767.30 692.11 767.00 707.00 Z"/>
</g>
<g fill="None" fill-opacity="0.0" stroke="#7E7E7F" stroke-opacity="1.00" stroke-width="0.3"><path d="
M 891.00 714.00 
C 891.60 710.32 891.67 706.76 891.00 703.00
C 891.24 706.57 891.19 710.43 891.00 714.00 Z"/>
</g>
<g fill="None" fill-opacity="0.0" stroke="#858486" stroke-opacity="1.00" stroke-width="0.3"><path d="
M 492.00 724.00 
C 492.51 718.72 492.52 712.35 492.00 707.00
C 492.00 712.67 492.00 718.33 492.00 724.00 Z"/>
</g>
<g fill="None" fill-opacity="0.0" stroke="#808283" stroke-opacity="1.00" stroke-width="0.3"><path d="
M 767.00 723.00 
C 767.00 717.67 766.89 712.33 767.00 707.00
C 766.39 712.03 766.51 717.93 767.00 723.00 Z"/>
</g>
<g fill="None" fill-opacity="0.0" stroke="#919494" stroke-opacity="1.00" stroke-width="0.3"><path d="
M 446.00 722.00 
C 446.00 718.33 446.00 714.67 446.00 711.00
C 445.67 714.39 445.67 718.54 446.00 722.00 Z"/>
</g>
<g fill="None" fill-opacity="0.0" stroke="#6B6C6D" stroke-opacity="1.00" stroke-width="0.3"><path d="
M 239.00 808.00 
C 242.38 808.00 255.19 809.76 257.00 807.00
C 251.03 806.30 244.26 807.49 239.00 808.00 Z"/>
</g>
<g fill="None" fill-opacity="0.0" stroke="#707070" stroke-opacity="1.00" stroke-width="0.3"><path d="
M 258.00 808.00 
C 261.67 808.00 265.33 808.00 269.00 808.00
C 266.99 807.81 259.83 805.08 258.00 808.00 Z"/>
</g>
<g fill="None" fill-opacity="0.0" stroke="#767778" stroke-opacity="1.00" stroke-width="0.3"><path d="
M 985.00 808.00 
C 987.72 808.00 996.52 806.67 998.00 809.00
C 997.59 804.88 989.04 807.61 985.00 808.00 Z"/>
</g>
<g fill="None" fill-opacity="0.0" stroke="#EDEEEE" stroke-opacity="1.00" stroke-width="0.3"><path d="
M 409.00 867.00 
C 368.46 860.48 325.65 865.54 286.00 872.00
C 290.47 889.22 307.99 878.41 321.33 877.33 C 334.67 876.25 351.14 873.59 365.00 872.00 C 378.86 870.41 396.10 871.30 409.00 867.00 Z"/>
</g>
<g fill="None" fill-opacity="0.0" stroke="#EBEBEB" stroke-opacity="1.00" stroke-width="0.3"><path d="
M 971.00 872.00 
C 951.23 868.09 930.52 865.61 910.00 865.00 C 889.48 864.39 866.69 861.53 848.00 868.00
C 862.09 870.09 878.67 870.88 892.78 872.22 C 906.89 873.56 922.50 876.69 936.00 878.00 C 949.49 879.32 965.45 888.24 971.00 872.00 Z"/>
</g>
<g fill="None" fill-opacity="0.0" stroke="#ECECEC" stroke-opacity="1.00" stroke-width="0.3"><path d="
M 412.00 901.00 
C 382.14 899.60 352.38 911.61 325.00 923.00
C 329.93 936.85 341.65 928.63 350.92 923.92 C 360.20 919.22 370.79 915.39 380.77 911.77 C 390.75 908.16 401.66 903.94 412.00 901.00 Z"/>
</g>
<g fill="None" fill-opacity="0.0" stroke="#ECECEC" stroke-opacity="1.00" stroke-width="0.3"><path d="
M 923.00 932.00 
C 924.61 930.39 931.99 925.75 931.00 923.00
C 922.08 919.33 913.94 915.10 904.68 912.32 C 895.42 909.55 885.57 905.72 876.00 904.00 C 866.43 902.27 852.87 897.46 845.00 902.00
C 852.06 902.75 859.31 906.14 865.93 908.07 C 872.55 910.01 879.39 913.37 885.77 915.23 C 892.15 917.09 898.58 922.12 904.77 923.23 C 910.96 924.34 917.07 932.61 923.00 932.00 Z"/>
</g>
<g fill="None" fill-opacity="0.0" stroke="#807F81" stroke-opacity="1.00" stroke-width="0.3"><path d="
M 923.00 932.00 
C 920.96 934.04 919.09 936.91 917.00 939.00
C 919.21 937.11 921.91 935.09 924.00 933.00
C 926.05 930.95 932.58 925.24 931.00 923.00
C 931.99 925.75 924.61 930.39 923.00 932.00 Z"/>
</g>
<g fill="#FEFEFE" fill-opacity="1.00" stroke="None">
<path d="
M 0.00 1254.00 
L 1254.00 1254.00
L 1254.00 0.00
L 0.00 0.00
L 0.00 1254.00
M 390.00 263.00 
C 398.77 270.49 407.55 279.28 415.00 288.00
C 423.81 298.31 432.97 306.89 441.75 317.25 C 450.54 327.60 459.23 337.23 468.25 347.75 C 477.26 358.27 484.59 367.31 493.30 378.70 C 502.01 390.08 509.67 397.71 518.75 410.25 C 527.84 422.79 546.22 414.39 562.00 413.00 C 577.78 411.61 597.03 408.40 614.02 408.02 C 631.02 407.65 652.14 407.78 669.00 410.00 C 685.86 412.22 701.88 411.59 718.22 416.78 C 734.57 421.96 741.37 404.75 749.92 393.92 C 758.47 383.09 766.62 373.68 775.25 363.25 C 783.87 352.82 792.34 342.34 801.30 332.30 C 810.27 322.26 818.67 312.79 828.25 303.25 C 837.82 293.71 846.89 284.11 856.75 274.75 C 866.62 265.39 875.63 255.93 886.25 247.25 C 896.87 238.57 906.41 231.04 918.23 223.23 C 930.05 215.42 944.15 208.50 959.01 207.01 C 973.87 205.51 988.41 213.19 994.31 227.70 C 1000.20 242.20 1004.38 256.64 1006.00 273.00 C 1007.61 289.36 1010.00 308.94 1010.00 326.00
C 1010.30 329.08 1011.00 333.25 1011.00 337.00
C 1011.00 356.33 1011.00 375.67 1011.00 395.00
C 1011.00 399.08 1010.32 403.66 1010.00 407.00
C 1010.00 430.24 1007.33 455.42 1006.00 478.00 C 1004.67 500.58 998.33 523.19 997.02 545.02 C 995.72 566.86 984.72 589.77 988.98 611.02 C 993.23 632.28 1003.45 648.17 1005.78 670.22 C 1008.10 692.27 1011.80 718.93 1010.00 742.00 C 1008.20 765.07 1004.83 785.18 999.00 807.00
C 1008.18 806.64 1018.22 807.16 1027.00 808.00 C 1035.78 808.84 1045.79 809.33 1054.02 810.98 C 1062.26 812.62 1072.64 812.49 1080.01 814.99 C 1087.37 817.50 1096.61 818.23 1102.68 821.32 C 1108.75 824.41 1119.81 824.94 1122.75 831.25 C 1125.69 837.55 1108.64 832.79 1102.99 831.01 C 1097.35 829.23 1086.37 827.63 1078.93 826.07 C 1071.49 824.52 1060.44 824.05 1052.00 823.00 C 1043.56 821.95 1033.07 821.36 1024.00 821.00 C 1014.93 820.64 1004.51 819.19 995.00 820.00
C 995.95 816.33 997.26 812.76 998.00 809.00
C 996.52 806.67 987.72 808.00 985.00 808.00
C 937.78 808.00 890.70 817.30 848.00 833.00
C 894.97 827.31 944.37 819.57 994.00 820.00
C 990.53 838.60 979.77 854.98 972.00 872.00
C 980.85 873.68 989.98 874.99 998.67 877.33 C 1007.36 879.67 1016.38 881.53 1025.02 883.98 C 1033.67 886.42 1041.17 889.26 1049.69 892.31 C 1058.21 895.35 1064.47 897.96 1073.08 901.92 C 1081.68 905.89 1084.70 908.74 1093.75 914.25 C 1102.79 919.77 1100.20 927.10 1090.77 921.23 C 1081.35 915.36 1076.60 915.18 1067.78 911.22 C 1058.95 907.27 1052.39 905.51 1043.78 902.22 C 1035.17 898.93 1026.71 897.70 1017.98 895.02 C 1009.24 892.35 1000.75 890.24 991.78 888.22 C 982.81 886.21 973.19 884.30 964.00 883.00
C 956.61 898.22 942.79 910.29 933.00 924.00
C 939.69 926.08 945.13 930.29 951.25 933.75 C 957.36 937.21 962.39 940.46 968.25 944.75 C 974.11 949.05 977.56 952.39 983.75 957.25 C 989.94 962.11 991.85 964.18 997.77 971.23 C 1003.69 978.28 999.49 982.66 992.75 976.25 C 986.01 969.83 982.75 969.42 976.75 964.25 C 970.75 959.08 965.70 957.49 959.77 953.23 C 953.84 948.97 948.46 946.18 942.31 942.70 C 936.15 939.21 930.33 935.84 924.00 933.00
C 921.91 935.09 919.21 937.11 917.00 939.00
C 909.93 945.04 903.47 950.35 896.25 956.25 C 889.03 962.15 881.11 967.02 873.30 972.30 C 865.49 977.58 857.70 982.66 849.30 987.30 C 840.91 991.95 832.64 996.44 823.77 1000.77 C 814.90 1005.10 805.69 1008.53 796.32 1012.32 C 786.95 1016.11 777.67 1019.44 767.78 1022.78 C 757.88 1026.11 747.55 1028.67 736.99 1030.99 C 726.44 1033.31 716.17 1036.45 704.98 1037.98 C 693.79 1039.50 681.79 1041.38 670.00 1042.00 C 658.21 1042.62 645.14 1044.15 633.00 1044.00 C 620.86 1043.85 606.72 1044.29 595.00 1043.00 C 583.28 1041.71 571.27 1040.62 560.00 1039.00 C 548.73 1037.39 537.67 1035.33 526.99 1033.01 C 516.32 1030.68 506.06 1028.01 495.99 1025.01 C 485.92 1022.01 476.50 1018.53 466.98 1015.03 C 457.45 1011.52 448.33 1007.69 439.32 1003.68 C 430.31 999.66 421.90 995.13 413.31 990.70 C 404.71 986.26 396.95 981.20 388.77 976.23 C 380.59 971.26 373.44 966.08 365.77 960.23 C 358.10 954.38 350.95 950.66 344.25 942.75 C 337.54 934.85 328.90 931.64 320.92 938.92 C 312.94 946.20 303.49 946.66 296.30 953.30 C 289.12 959.94 279.27 962.38 273.25 969.25 C 267.24 976.13 252.17 984.21 256.92 973.92 C 261.66 963.63 269.40 961.45 276.25 954.25 C 283.09 947.05 291.10 943.55 298.75 937.75 C 306.39 931.95 315.50 928.16 324.00 924.00
C 315.46 912.90 303.81 902.03 296.70 890.30 C 289.59 878.58 285.76 885.11 275.93 885.93 C 266.09 886.74 259.75 890.33 250.93 891.93 C 242.10 893.52 234.56 896.26 226.33 898.33 C 218.10 900.40 210.99 904.38 202.98 905.98 C 194.96 907.57 188.50 913.56 180.78 914.78 C 173.05 916.00 167.04 924.60 159.31 924.31 C 151.57 924.01 162.95 912.97 168.70 910.70 C 174.44 908.42 182.15 902.26 189.07 900.07 C 195.99 897.89 203.46 892.96 211.07 891.07 C 218.68 889.19 226.22 885.05 234.22 883.22 C 242.23 881.40 250.92 879.17 259.07 877.07 C 267.22 874.97 276.57 873.42 285.00 872.00
C 275.06 855.72 267.08 838.23 262.00 820.00
C 312.06 819.06 361.65 827.98 409.00 833.00
C 365.60 815.79 317.33 809.17 269.00 808.00
C 265.33 808.00 261.67 808.00 258.00 808.00
C 256.46 810.47 262.57 816.95 261.00 820.00
C 248.69 819.89 234.90 820.01 223.00 821.00 C 211.10 821.99 199.00 822.63 187.78 824.78 C 176.55 826.92 164.11 826.60 153.93 830.93 C 143.74 835.26 127.81 834.88 139.23 827.23 C 150.65 819.58 157.52 821.07 169.02 817.02 C 180.53 812.98 190.13 813.06 202.00 811.00 C 213.87 808.94 226.45 807.55 239.00 808.00
C 244.26 807.49 251.03 806.30 257.00 807.00
C 259.62 803.01 252.57 795.25 253.02 789.98 C 253.48 784.70 250.13 776.98 250.00 771.00 C 249.88 765.01 246.97 758.41 247.07 751.93 C 247.17 745.44 246.74 737.38 246.07 730.93 C 245.40 724.48 245.64 715.50 246.00 709.00 C 246.36 702.50 247.93 695.55 248.00 689.00 C 248.07 682.45 250.34 676.29 250.99 669.99 C 251.64 663.69 253.36 657.84 254.93 651.93 C 256.49 646.01 257.46 640.04 259.33 634.33 C 261.19 628.62 262.93 623.55 264.93 617.93 C 266.92 612.31 269.44 605.36 268.00 599.00 C 266.56 592.64 266.01 586.36 265.00 580.00 C 263.99 573.64 262.37 568.04 261.22 561.78 C 260.07 555.52 260.07 549.29 259.00 543.00 C 257.93 536.71 256.37 530.57 256.00 524.00 C 255.63 517.43 253.68 511.55 253.07 504.93 C 252.47 498.31 251.93 491.44 251.22 484.78 C 250.52 478.12 249.76 471.66 249.07 464.93 C 248.38 458.20 248.04 451.00 248.00 444.00 C 247.96 437.00 246.67 430.19 247.00 423.00 C 247.33 415.81 246.02 409.20 246.00 402.00 C 245.98 394.80 246.16 387.26 246.00 380.00 C 245.84 372.74 246.42 365.26 246.00 358.00 C 245.58 350.74 246.81 344.01 247.00 337.00 C 247.19 329.99 247.02 322.68 248.00 316.00 C 248.98 309.32 248.79 302.21 249.78 295.78 C 250.77 289.34 251.01 283.19 251.99 276.99 C 252.97 270.79 253.66 263.91 254.99 257.99 C 256.32 252.08 257.98 246.24 259.78 240.78 C 261.57 235.32 263.40 230.04 266.31 225.31 C 269.21 220.57 271.33 216.56 276.25 213.25 C 281.17 209.93 285.35 207.56 292.02 207.02 C 298.70 206.49 305.02 206.59 312.22 208.78 C 319.42 210.97 319.58 210.35 328.23 214.77 C 336.88 219.19 346.94 226.02 354.75 232.25 C 362.55 238.49 371.21 245.90 378.70 252.30 C 386.18 258.70 383.48 257.43 390.00 263.00 Z"/>
</g>
<g fill="#111113" fill-opacity="1.00" stroke="None">
<path d="
M 257.00 807.00 
C 255.19 809.76 242.38 808.00 239.00 808.00
C 226.45 807.55 213.87 808.94 202.00 811.00 C 190.13 813.06 180.53 812.98 169.02 817.02 C 157.52 821.07 150.65 819.58 139.23 827.23 C 127.81 834.88 143.74 835.26 153.93 830.93 C 164.11 826.60 176.55 826.92 187.78 824.78 C 199.00 822.63 211.10 821.99 223.00 821.00 C 234.90 820.01 248.69 819.89 261.00 820.00
C 262.57 816.95 256.46 810.47 258.00 808.00
C 259.83 805.08 266.99 807.81 269.00 808.00
C 317.33 809.17 365.60 815.79 409.00 833.00
C 361.65 827.98 312.06 819.06 262.00 820.00
C 267.08 838.23 275.06 855.72 285.00 872.00
C 276.57 873.42 267.22 874.97 259.07 877.07 C 250.92 879.17 242.23 881.40 234.22 883.22 C 226.22 885.05 218.68 889.19 211.07 891.07 C 203.46 892.96 195.99 897.89 189.07 900.07 C 182.15 902.26 174.44 908.42 168.70 910.70 C 162.95 912.97 151.57 924.01 159.31 924.31 C 167.04 924.60 173.05 916.00 180.78 914.78 C 188.50 913.56 194.96 907.57 202.98 905.98 C 210.99 904.38 218.10 900.40 226.33 898.33 C 234.56 896.26 242.10 893.52 250.93 891.93 C 259.75 890.33 266.09 886.74 275.93 885.93 C 285.76 885.11 289.59 878.58 296.70 890.30 C 303.81 902.03 315.46 912.90 324.00 924.00
C 315.50 928.16 306.39 931.95 298.75 937.75 C 291.10 943.55 283.09 947.05 276.25 954.25 C 269.40 961.45 261.66 963.63 256.92 973.92 C 252.17 984.21 267.24 976.13 273.25 969.25 C 279.27 962.38 289.12 959.94 296.30 953.30 C 303.49 946.66 312.94 946.20 320.92 938.92 C 328.90 931.64 337.54 934.85 344.25 942.75 C 350.95 950.66 358.10 954.38 365.77 960.23 C 373.44 966.08 380.59 971.26 388.77 976.23 C 396.95 981.20 404.71 986.26 413.31 990.70 C 421.90 995.13 430.31 999.66 439.32 1003.68 C 448.33 1007.69 457.45 1011.52 466.98 1015.03 C 476.50 1018.53 485.92 1022.01 495.99 1025.01 C 506.06 1028.01 516.32 1030.68 526.99 1033.01 C 537.67 1035.33 548.73 1037.39 560.00 1039.00 C 571.27 1040.62 583.28 1041.71 595.00 1043.00 C 606.72 1044.29 620.86 1043.85 633.00 1044.00 C 645.14 1044.15 658.21 1042.62 670.00 1042.00 C 681.79 1041.38 693.79 1039.50 704.98 1037.98 C 716.17 1036.45 726.44 1033.31 736.99 1030.99 C 747.55 1028.67 757.88 1026.11 767.78 1022.78 C 777.67 1019.44 786.95 1016.11 796.32 1012.32 C 805.69 1008.53 814.90 1005.10 823.77 1000.77 C 832.64 996.44 840.91 991.95 849.30 987.30 C 857.70 982.66 865.49 977.58 873.30 972.30 C 881.11 967.02 889.03 962.15 896.25 956.25 C 903.47 950.35 909.93 945.04 917.00 939.00
C 919.09 936.91 920.96 934.04 923.00 932.00
C 917.07 932.61 910.96 924.34 904.77 923.23 C 898.58 922.12 892.15 917.09 885.77 915.23 C 879.39 913.37 872.55 910.01 865.93 908.07 C 859.31 906.14 852.06 902.75 845.00 902.00
C 852.87 897.46 866.43 902.27 876.00 904.00 C 885.57 905.72 895.42 909.55 904.68 912.32 C 913.94 915.10 922.08 919.33 931.00 923.00
C 932.58 925.24 926.05 930.95 924.00 933.00
C 930.33 935.84 936.15 939.21 942.31 942.70 C 948.46 946.18 953.84 948.97 959.77 953.23 C 965.70 957.49 970.75 959.08 976.75 964.25 C 982.75 969.42 986.01 969.83 992.75 976.25 C 999.49 982.66 1003.69 978.28 997.77 971.23 C 991.85 964.18 989.94 962.11 983.75 957.25 C 977.56 952.39 974.11 949.05 968.25 944.75 C 962.39 940.46 957.36 937.21 951.25 933.75 C 945.13 930.29 939.69 926.08 933.00 924.00
C 942.79 910.29 956.61 898.22 964.00 883.00
C 973.19 884.30 982.81 886.21 991.78 888.22 C 1000.75 890.24 1009.24 892.35 1017.98 895.02 C 1026.71 897.70 1035.17 898.93 1043.78 902.22 C 1052.39 905.51 1058.95 907.27 1067.78 911.22 C 1076.60 915.18 1081.35 915.36 1090.77 921.23 C 1100.20 927.10 1102.79 919.77 1093.75 914.25 C 1084.70 908.74 1081.68 905.89 1073.08 901.92 C 1064.47 897.96 1058.21 895.35 1049.69 892.31 C 1041.17 889.26 1033.67 886.42 1025.02 883.98 C 1016.38 881.53 1007.36 879.67 998.67 877.33 C 989.98 874.99 980.85 873.68 972.00 872.00
C 979.77 854.98 990.53 838.60 994.00 820.00
C 944.37 819.57 894.97 827.31 848.00 833.00
C 890.70 817.30 937.78 808.00 985.00 808.00
C 989.04 807.61 997.59 804.88 998.00 809.00
C 997.26 812.76 995.95 816.33 995.00 820.00
C 1004.51 819.19 1014.93 820.64 1024.00 821.00 C 1033.07 821.36 1043.56 821.95 1052.00 823.00 C 1060.44 824.05 1071.49 824.52 1078.93 826.07 C 1086.37 827.63 1097.35 829.23 1102.99 831.01 C 1108.64 832.79 1125.69 837.55 1122.75 831.25 C 1119.81 824.94 1108.75 824.41 1102.68 821.32 C 1096.61 818.23 1087.37 817.50 1080.01 814.99 C 1072.64 812.49 1062.26 812.62 1054.02 810.98 C 1045.79 809.33 1035.78 808.84 1027.00 808.00 C 1018.22 807.16 1008.18 806.64 999.00 807.00
C 1004.83 785.18 1008.20 765.07 1010.00 742.00 C 1011.80 718.93 1008.10 692.27 1005.78 670.22 C 1003.45 648.17 993.23 632.28 988.98 611.02 C 984.72 589.77 995.72 566.86 997.02 545.02 C 998.33 523.19 1004.67 500.58 1006.00 478.00 C 1007.33 455.42 1010.00 430.24 1010.00 407.00
C 1010.00 402.92 1010.68 398.34 1011.00 395.00
C 1011.00 375.67 1011.00 356.33 1011.00 337.00
C 1010.70 333.92 1010.00 329.75 1010.00 326.00
C 1010.00 308.94 1007.61 289.36 1006.00 273.00 C 1004.38 256.64 1000.20 242.20 994.31 227.70 C 988.41 213.19 973.87 205.51 959.01 207.01 C 944.15 208.50 930.05 215.42 918.23 223.23 C 906.41 231.04 896.87 238.57 886.25 247.25 C 875.63 255.93 866.62 265.39 856.75 274.75 C 846.89 284.11 837.82 293.71 828.25 303.25 C 818.67 312.79 810.27 322.26 801.30 332.30 C 792.34 342.34 783.87 352.82 775.25 363.25 C 766.62 373.68 758.47 383.09 749.92 393.92 C 741.37 404.75 734.57 421.96 718.22 416.78 C 701.88 411.59 685.86 412.22 669.00 410.00 C 652.14 407.78 631.02 407.65 614.02 408.02 C 597.03 408.40 577.78 411.61 562.00 413.00 C 546.22 414.39 527.84 422.79 518.75 410.25 C 509.67 397.71 502.01 390.08 493.30 378.70 C 484.59 367.31 477.26 358.27 468.25 347.75 C 459.23 337.23 450.54 327.60 441.75 317.25 C 432.97 306.89 423.81 298.31 415.00 288.00
C 406.75 279.75 398.20 271.20 390.00 263.00
C 383.48 257.43 386.18 258.70 378.70 252.30 C 371.21 245.90 362.55 238.49 354.75 232.25 C 346.94 226.02 336.88 219.19 328.23 214.77 C 319.58 210.35 319.42 210.97 312.22 208.78 C 305.02 206.59 298.70 206.49 292.02 207.02 C 285.35 207.56 281.17 209.93 276.25 213.25 C 271.33 216.56 269.21 220.57 266.31 225.31 C 263.40 230.04 261.57 235.32 259.78 240.78 C 257.98 246.24 256.32 252.08 254.99 257.99 C 253.66 263.91 252.97 270.79 251.99 276.99 C 251.01 283.19 250.77 289.34 249.78 295.78 C 248.79 302.21 248.98 309.32 248.00 316.00 C 247.02 322.68 247.19 329.99 247.00 337.00 C 246.81 344.01 245.58 350.74 246.00 358.00 C 246.42 365.26 245.84 372.74 246.00 380.00 C 246.16 387.26 245.98 394.80 246.00 402.00 C 246.02 409.20 247.33 415.81 247.00 423.00 C 246.67 430.19 247.96 437.00 248.00 444.00 C 248.04 451.00 248.38 458.20 249.07 464.93 C 249.76 471.66 250.52 478.12 251.22 484.78 C 251.93 491.44 252.47 498.31 253.07 504.93 C 253.68 511.55 255.63 517.43 256.00 524.00 C 256.37 530.57 257.93 536.71 259.00 543.00 C 260.07 549.29 260.07 555.52 261.22 561.78 C 262.37 568.04 263.99 573.64 265.00 580.00 C 266.01 586.36 266.56 592.64 268.00 599.00 C 269.44 605.36 266.92 612.31 264.93 617.93 C 262.93 623.55 261.19 628.62 259.33 634.33 C 257.46 640.04 256.49 646.01 254.93 651.93 C 253.36 657.84 251.64 663.69 250.99 669.99 C 250.34 676.29 248.07 682.45 248.00 689.00 C 247.93 695.55 246.36 702.50 246.00 709.00 C 245.64 715.50 245.40 724.48 246.07 730.93 C 246.74 737.38 247.17 745.44 247.07 751.93 C 246.97 758.41 249.88 765.01 250.00 771.00 C 250.13 776.98 253.48 784.70 253.02 789.98 C 252.57 795.25 259.62 803.01 257.00 807.00
M 310.00 558.00 
C 308.17 548.44 306.09 539.57 304.02 529.98 C 301.95 520.38 300.45 510.95 299.00 501.00 C 297.55 491.05 295.10 481.23 294.02 470.98 C 292.95 460.72 292.29 450.43 291.00 440.00 C 289.71 429.57 289.48 418.05 288.67 407.33 C 287.86 396.61 287.97 384.96 288.00 374.00 C 288.03 363.04 288.06 349.66 288.00 339.00 C 287.94 328.34 289.15 316.65 289.99 306.99 C 290.83 297.33 292.73 285.32 293.99 276.99 C 295.26 268.66 301.01 256.47 309.67 258.33 C 318.33 260.20 323.33 267.18 329.75 272.25 C 336.18 277.31 341.49 284.02 347.25 289.75 C 353.00 295.49 357.31 302.10 362.77 308.23 C 368.23 314.36 373.02 321.48 377.92 328.08 C 382.82 334.68 387.61 341.04 391.92 348.08 C 396.23 355.13 401.05 361.42 405.25 368.75 C 409.46 376.07 413.75 383.50 417.77 391.23 C 421.79 398.96 425.96 405.09 429.31 413.70 C 432.65 422.30 438.34 427.91 439.93 438.07 C 441.52 448.23 420.16 444.20 415.00 443.00 C 409.83 441.81 385.44 437.13 388.33 446.67 C 391.22 456.22 395.65 457.53 402.30 466.70 C 408.95 475.86 399.91 483.08 389.00 480.00 C 378.09 476.92 364.64 484.92 372.30 493.70 C 379.96 502.48 377.21 508.05 368.75 512.75 C 360.30 517.45 355.25 521.91 347.92 526.92 C 340.58 531.93 335.79 536.72 329.25 542.25 C 322.70 547.78 316.80 553.35 310.00 558.00
M 947.00 558.00 
C 939.84 554.09 934.77 548.20 928.25 542.75 C 921.73 537.30 915.93 532.24 908.77 527.23 C 901.61 522.22 897.15 517.66 888.92 513.08 C 880.69 508.51 875.74 502.70 884.75 493.75 C 893.77 484.81 880.19 478.24 870.00 481.00 C 859.81 483.76 847.34 477.44 853.77 467.77 C 860.21 458.10 864.14 457.43 868.30 447.30 C 872.47 437.17 849.25 441.84 843.93 442.93 C 838.60 444.01 817.13 448.89 816.08 439.92 C 815.02 430.95 823.35 423.82 825.77 415.77 C 828.20 407.72 834.15 400.31 837.77 392.77 C 841.39 385.23 845.66 378.10 849.92 370.92 C 854.17 363.74 858.68 356.21 863.30 349.30 C 867.93 342.40 872.88 335.40 877.75 328.75 C 882.63 322.10 887.16 315.87 892.75 309.75 C 898.34 303.63 902.74 296.55 908.75 290.75 C 914.77 284.96 919.15 279.17 925.75 273.75 C 932.35 268.34 937.49 262.16 946.08 259.08 C 954.66 255.99 961.17 265.18 962.78 274.22 C 964.38 283.26 966.70 294.85 967.00 305.00 C 967.30 315.15 969.64 327.21 969.00 338.00 C 968.36 348.79 969.85 361.16 969.00 372.00 C 968.16 382.84 968.27 395.13 968.00 406.00 C 967.73 416.87 965.30 426.31 965.01 437.01 C 964.71 447.71 963.30 458.70 962.01 469.01 C 960.72 479.31 959.71 488.97 958.01 499.01 C 956.30 509.05 954.81 519.08 953.01 529.01 C 951.21 538.94 948.66 548.06 947.00 558.00
M 468.00 628.00 
C 497.55 630.86 526.24 649.31 540.77 676.23 C 555.30 703.15 569.23 744.24 549.08 772.08 C 528.94 799.92 490.52 805.31 458.93 802.07 C 427.33 798.84 403.17 781.45 384.25 755.75 C 365.32 730.06 362.84 691.33 384.77 666.77 C 406.70 642.21 434.26 624.73 468.00 628.00
M 891.00 703.00 
C 891.67 706.76 891.60 710.32 891.00 714.00
C 889.35 744.48 869.44 767.95 844.25 786.25 C 819.07 804.56 777.43 806.91 746.33 797.67 C 715.23 788.43 694.68 755.96 702.00 724.00 C 709.32 692.04 721.08 668.93 745.08 647.08 C 769.09 625.23 810.88 623.31 837.08 636.92 C 863.27 650.54 888.97 673.09 891.00 703.00
M 409.00 867.00 
C 396.10 871.30 378.86 870.41 365.00 872.00 C 351.14 873.59 334.67 876.25 321.33 877.33 C 307.99 878.41 290.47 889.22 286.00 872.00
C 325.65 865.54 368.46 860.48 409.00 867.00
M 971.00 872.00 
C 965.45 888.24 949.49 879.32 936.00 878.00 C 922.50 876.69 906.89 873.56 892.78 872.22 C 878.67 870.88 862.09 870.09 848.00 868.00
C 866.69 861.53 889.48 864.39 910.00 865.00 C 930.52 865.61 951.23 868.09 971.00 872.00
M 412.00 901.00 
C 401.66 903.94 390.75 908.16 380.77 911.77 C 370.79 915.39 360.20 919.22 350.92 923.92 C 341.65 928.63 329.93 936.85 325.00 923.00
C 352.38 911.61 382.14 899.60 412.00 901.00 Z"/>
</g>
<g fill="#FBFBFB" fill-opacity="1.00" stroke="None">
<path d="
M 310.00 558.00 
C 316.80 553.35 322.70 547.78 329.25 542.25 C 335.79 536.72 340.58 531.93 347.92 526.92 C 355.25 521.91 360.30 517.45 368.75 512.75 C 377.21 508.05 379.96 502.48 372.30 493.70 C 364.64 484.92 378.09 476.92 389.00 480.00 C 399.91 483.08 408.95 475.86 402.30 466.70 C 395.65 457.53 391.22 456.22 388.33 446.67 C 385.44 437.13 409.83 441.81 415.00 443.00 C 420.16 444.20 441.52 448.23 439.93 438.07 C 438.34 427.91 432.65 422.30 429.31 413.70 C 425.96 405.09 421.79 398.96 417.77 391.23 C 413.75 383.50 409.46 376.07 405.25 368.75 C 401.05 361.42 396.23 355.13 391.92 348.08 C 387.61 341.04 382.82 334.68 377.92 328.08 C 373.02 321.48 368.23 314.36 362.77 308.23 C 357.31 302.10 353.00 295.49 347.25 289.75 C 341.49 284.02 336.18 277.31 329.75 272.25 C 323.33 267.18 318.33 260.20 309.67 258.33 C 301.01 256.47 295.26 268.66 293.99 276.99 C 292.73 285.32 290.83 297.33 289.99 306.99 C 289.15 316.65 287.94 328.34 288.00 339.00 C 288.06 349.66 288.03 363.04 288.00 374.00 C 287.97 384.96 287.86 396.61 288.67 407.33 C 289.48 418.05 289.71 429.57 291.00 440.00 C 292.29 450.43 292.95 460.72 294.02 470.98 C 295.10 481.23 297.55 491.05 299.00 501.00 C 300.45 510.95 301.95 520.38 304.02 529.98 C 306.09 539.57 308.17 548.44 310.00 558.00 Z"/>
</g>
<g fill="#FBFBFB" fill-opacity="1.00" stroke="None">
<path d="
M 947.00 558.00 
C 948.66 548.06 951.21 538.94 953.01 529.01 C 954.81 519.08 956.30 509.05 958.01 499.01 C 959.71 488.97 960.72 479.31 962.01 469.01 C 963.30 458.70 964.71 447.71 965.01 437.01 C 965.30 426.31 967.73 416.87 968.00 406.00 C 968.27 395.13 968.16 382.84 969.00 372.00 C 969.85 361.16 968.36 348.79 969.00 338.00 C 969.64 327.21 967.30 315.15 967.00 305.00 C 966.70 294.85 964.38 283.26 962.78 274.22 C 961.17 265.18 954.66 255.99 946.08 259.08 C 937.49 262.16 932.35 268.34 925.75 273.75 C 919.15 279.17 914.77 284.96 908.75 290.75 C 902.74 296.55 898.34 303.63 892.75 309.75 C 887.16 315.87 882.63 322.10 877.75 328.75 C 872.88 335.40 867.93 342.40 863.30 349.30 C 858.68 356.21 854.17 363.74 849.92 370.92 C 845.66 378.10 841.39 385.23 837.77 392.77 C 834.15 400.31 828.20 407.72 825.77 415.77 C 823.35 423.82 815.02 430.95 816.08 439.92 C 817.13 448.89 838.60 444.01 843.93 442.93 C 849.25 441.84 872.47 437.17 868.30 447.30 C 864.14 457.43 860.21 458.10 853.77 467.77 C 847.34 477.44 859.81 483.76 870.00 481.00 C 880.19 478.24 893.77 484.81 884.75 493.75 C 875.74 502.70 880.69 508.51 888.92 513.08 C 897.15 517.66 901.61 522.22 908.77 527.23 C 915.93 532.24 921.73 537.30 928.25 542.75 C 934.77 548.20 939.84 554.09 947.00 558.00 Z"/>
</g>
<g fill="#808082" fill-opacity="1.00" stroke="None">
<path d="
M 415.00 288.00 
C 407.55 279.28 398.77 270.49 390.00 263.00
C 398.20 271.20 406.75 279.75 415.00 288.00 Z"/>
</g>
<g fill="#858486" fill-opacity="1.00" stroke="None">
<path d="
M 1011.00 337.00 
C 1011.00 333.25 1010.30 329.08 1010.00 326.00
C 1010.00 329.75 1010.70 333.92 1011.00 337.00 Z"/>
</g>
<g fill="#7E7D7F" fill-opacity="1.00" stroke="None">
<path d="
M 1010.00 407.00 
C 1010.32 403.66 1011.00 399.08 1011.00 395.00
C 1010.68 398.34 1010.00 402.92 1010.00 407.00 Z"/>
</g>
<g fill="#FBFAFB" fill-opacity="1.00" stroke="None">
<path d="
M 468.00 628.00 
C 434.26 624.73 406.70 642.21 384.77 666.77 C 362.84 691.33 365.32 730.06 384.25 755.75 C 403.17 781.45 427.33 798.84 458.93 802.07 C 490.52 805.31 528.94 799.92 549.08 772.08 C 569.23 744.24 555.30 703.15 540.77 676.23 C 526.24 649.31 497.55 630.86 468.00 628.00
M 492.00 707.00 
C 492.52 712.35 492.51 718.72 492.00 724.00
C 492.00 734.20 490.10 744.18 488.01 754.01 C 485.92 763.84 481.89 769.33 478.08 779.08 C 474.26 788.82 463.43 787.85 459.70 778.30 C 455.97 768.75 452.05 763.00 450.02 752.98 C 447.99 742.95 446.00 732.66 446.00 722.00
C 445.67 718.54 445.67 714.39 446.00 711.00
C 446.00 700.41 447.89 681.77 451.93 672.93 C 455.96 664.08 456.54 647.20 467.08 644.08 C 477.62 640.96 482.68 661.07 485.77 669.23 C 488.86 677.39 492.00 697.09 492.00 707.00 Z"/>
</g>
<g fill="#FAFAFA" fill-opacity="1.00" stroke="None">
<path d="
M 891.00 714.00 
C 891.19 710.43 891.24 706.57 891.00 703.00
C 888.97 673.09 863.27 650.54 837.08 636.92 C 810.88 623.31 769.09 625.23 745.08 647.08 C 721.08 668.93 709.32 692.04 702.00 724.00 C 694.68 755.96 715.23 788.43 746.33 797.67 C 777.43 806.91 819.07 804.56 844.25 786.25 C 869.44 767.95 889.35 744.48 891.00 714.00
M 767.00 723.00 
C 766.51 717.93 766.39 712.03 767.00 707.00
C 767.30 692.11 772.41 678.25 775.32 664.32 C 778.24 650.39 790.80 636.98 798.77 652.23 C 806.74 667.48 808.51 675.78 811.33 691.67 C 814.15 707.57 813.96 723.30 811.02 739.02 C 808.09 754.75 807.15 763.74 798.69 778.70 C 790.24 793.65 778.57 780.65 775.07 766.93 C 771.57 753.20 767.00 738.11 767.00 723.00 Z"/>
</g>
<g fill="#121213" fill-opacity="1.00" stroke="None">
<path d="
M 446.00 711.00 
C 446.00 714.67 446.00 718.33 446.00 722.00
C 446.00 732.66 447.99 742.95 450.02 752.98 C 452.05 763.00 455.97 768.75 459.70 778.30 C 463.43 787.85 474.26 788.82 478.08 779.08 C 481.89 769.33 485.92 763.84 488.01 754.01 C 490.10 744.18 492.00 734.20 492.00 724.00
C 492.00 718.33 492.00 712.67 492.00 707.00
C 492.00 697.09 488.86 677.39 485.77 669.23 C 482.68 661.07 477.62 640.96 467.08 644.08 C 456.54 647.20 455.96 664.08 451.93 672.93 C 447.89 681.77 446.00 700.41 446.00 711.00 Z"/>
</g>
<g fill="#121214" fill-opacity="1.00" stroke="None">
<path d="
M 767.00 707.00 
C 766.89 712.33 767.00 717.67 767.00 723.00
C 767.00 738.11 771.57 753.20 775.07 766.93 C 778.57 780.65 790.24 793.65 798.69 778.70 C 807.15 763.74 808.09 754.75 811.02 739.02 C 813.96 723.30 814.15 707.57 811.33 691.67 C 808.51 675.78 806.74 667.48 798.77 652.23 C 790.80 636.98 778.24 650.39 775.32 664.32 C 772.41 678.25 767.30 692.11 767.00 707.00 Z"/>
</g>
<g fill="#7E7E7F" fill-opacity="1.00" stroke="None">
<path d="
M 891.00 714.00 
C 891.60 710.32 891.67 706.76 891.00 703.00
C 891.24 706.57 891.19 710.43 891.00 714.00 Z"/>
</g>
<g fill="#858486" fill-opacity="1.00" stroke="None">
<path d="
M 492.00 724.00 
C 492.51 718.72 492.52 712.35 492.00 707.00
C 492.00 712.67 492.00 718.33 492.00 724.00 Z"/>
</g>
<g fill="#808283" fill-opacity="1.00" stroke="None">
<path d="
M 767.00 723.00 
C 767.00 717.67 766.89 712.33 767.00 707.00
C 766.39 712.03 766.51 717.93 767.00 723.00 Z"/>
</g>
<g fill="#919494" fill-opacity="1.00" stroke="None">
<path d="
M 446.00 722.00 
C 446.00 718.33 446.00 714.67 446.00 711.00
C 445.67 714.39 445.67 718.54 446.00 722.00 Z"/>
</g>
<g fill="#6B6C6D" fill-opacity="1.00" stroke="None">
<path d="
M 239.00 808.00 
C 242.38 808.00 255.19 809.76 257.00 807.00
C 251.03 806.30 244.26 807.49 239.00 808.00 Z"/>
</g>
<g fill="#707070" fill-opacity="1.00" stroke="None">
<path d="
M 258.00 808.00 
C 261.67 808.00 265.33 808.00 269.00 808.00
C 266.99 807.81 259.83 805.08 258.00 808.00 Z"/>
</g>
<g fill="#767778" fill-opacity="1.00" stroke="None">
<path d="
M 985.00 808.00 
C 987.72 808.00 996.52 806.67 998.00 809.00
C 997.59 804.88 989.04 807.61 985.00 808.00 Z"/>
</g>
<g fill="#EDEEEE" fill-opacity="1.00" stroke="None">
<path d="
M 409.00 867.00 
C 368.46 860.48 325.65 865.54 286.00 872.00
C 290.47 889.22 307.99 878.41 321.33 877.33 C 334.67 876.25 351.14 873.59 365.00 872.00 C 378.86 870.41 396.10 871.30 409.00 867.00 Z"/>
</g>
<g fill="#EBEBEB" fill-opacity="1.00" stroke="None">
<path d="
M 971.00 872.00 
C 951.23 868.09 930.52 865.61 910.00 865.00 C 889.48 864.39 866.69 861.53 848.00 868.00
C 862.09 870.09 878.67 870.88 892.78 872.22 C 906.89 873.56 922.50 876.69 936.00 878.00 C 949.49 879.32 965.45 888.24 971.00 872.00 Z"/>
</g>
<g fill="#ECECEC" fill-opacity="1.00" stroke="None">
<path d="
M 412.00 901.00 
C 382.14 899.60 352.38 911.61 325.00 923.00
C 329.93 936.85 341.65 928.63 350.92 923.92 C 360.20 919.22 370.79 915.39 380.77 911.77 C 390.75 908.16 401.66 903.94 412.00 901.00 Z"/>
</g>
<g fill="#ECECEC" fill-opacity="1.00" stroke="None">
<path d="
M 923.00 932.00 
C 924.61 930.39 931.99 925.75 931.00 923.00
C 922.08 919.33 913.94 915.10 904.68 912.32 C 895.42 909.55 885.57 905.72 876.00 904.00 C 866.43 902.27 852.87 897.46 845.00 902.00
C 852.06 902.75 859.31 906.14 865.93 908.07 C 872.55 910.01 879.39 913.37 885.77 915.23 C 892.15 917.09 898.58 922.12 904.77 923.23 C 910.96 924.34 917.07 932.61 923.00 932.00 Z"/>
</g>
<g fill="#807F81" fill-opacity="1.00" stroke="None">
<path d="
M 923.00 932.00 
C 920.96 934.04 919.09 936.91 917.00 939.00
C 919.21 937.11 921.91 935.09 924.00 933.00
C 926.05 930.95 932.58 925.24 931.00 923.00
C 931.99 925.75 924.61 930.39 923.00 932.00 Z"/>
</g>
</svg>