<svg xmlns="http://www.w3.org/2000/svg" xmlns:v="https://svgstorm.com"
viewBox = "0 0 1254 1254"
width="1254"
height="1254">
<g fill="None" fill-opacity="0.0" stroke="#FEFEFE" stroke-opacity="1.00" stroke-width="0.3"><path d="
M 0.00 1254.00 
L 1254.00 1254.00
L 1254.00 0.00
L 0.00 0.00
L 0.00 1254.00
M 999.00 801.00 
C 1003.65 801.01 1011.40 802.56 1016.00 803.00
C 1026.27 803.00 1038.32 804.02 1048.00 805.00 C 1057.68 805.98 1069.21 808.72 1078.02 809.98 C 1086.84 811.23 1098.28 816.33 1105.68 817.32 C 1113.08 818.31 1128.22 829.90 1119.32 830.66 C 1110.42 831.42 1100.68 824.15 1091.00 824.00 C 1081.32 823.86 1071.22 819.50 1060.98 819.02 C 1050.73 818.55 1039.74 816.21 1029.00 816.00 C 1018.26 815.79 1006.10 814.38 995.00 815.00
C 995.28 810.82 997.09 807.05 998.00 803.00
C 994.00 803.00 990.00 803.00 986.00 803.00
C 937.51 803.00 890.47 812.63 846.00 828.00
C 893.78 823.17 943.72 814.60 994.00 815.00
C 989.50 833.72 979.02 850.33 972.00 868.00
C 981.30 868.98 991.06 870.81 1000.00 873.00 C 1008.94 875.19 1017.24 877.44 1026.02 879.98 C 1034.81 882.51 1043.13 884.82 1051.68 888.32 C 1060.23 891.82 1066.00 893.80 1074.69 898.31 C 1083.39 902.81 1086.65 904.61 1095.75 911.25 C 1104.84 917.90 1097.93 922.77 1089.31 916.69 C 1080.68 910.62 1074.25 910.28 1065.78 906.22 C 1057.30 902.17 1049.74 900.73 1041.32 897.68 C 1032.91 894.63 1023.37 892.17 1014.98 890.02 C 1006.59 887.88 996.37 884.70 988.33 883.67 C 980.29 882.64 967.71 875.67 961.75 881.75 C 955.79 887.83 953.94 895.04 947.75 900.75 C 941.56 906.47 938.27 913.38 932.00 919.00
C 931.80 919.40 932.00 920.00 932.00 920.00
C 938.88 922.58 947.05 926.99 953.23 930.77 C 959.41 934.55 966.72 939.89 972.08 943.92 C 977.44 947.95 985.25 954.74 989.25 958.75 C 993.24 962.76 1004.82 972.93 1000.74 976.74 C 996.66 980.56 987.99 967.26 982.75 965.25 C 977.52 963.23 969.61 954.91 963.77 952.23 C 957.93 949.55 950.30 941.71 943.92 940.08 C 937.54 938.44 929.56 927.99 923.00 929.00
C 920.91 931.09 918.21 933.11 916.00 935.00
C 834.35 1004.77 729.22 1043.71 621.00 1041.00 C 512.78 1038.29 410.89 1002.53 333.00 928.00
C 358.06 915.03 384.19 905.13 411.00 897.00
C 380.92 895.02 351.46 907.76 324.00 919.00
C 324.79 923.27 330.13 925.22 332.00 929.00
C 325.19 931.82 317.44 936.64 310.92 939.92 C 304.41 943.21 297.41 949.35 291.30 952.30 C 285.19 955.26 277.94 963.42 272.75 965.75 C 267.57 968.08 258.10 980.18 254.25 976.74 C 250.41 973.30 261.60 962.43 265.75 958.75 C 269.90 955.07 277.66 947.95 283.08 944.08 C 288.50 940.22 295.76 934.44 302.08 931.08 C 308.40 927.72 315.90 922.05 323.00 920.00
C 319.87 912.85 313.34 910.84 309.25 903.75 C 305.15 896.66 299.37 894.74 295.75 886.25 C 292.12 877.77 282.92 879.06 274.78 881.78 C 266.64 884.49 257.37 884.76 249.33 887.33 C 241.29 889.90 233.81 891.21 225.93 893.93 C 218.04 896.64 210.20 898.56 202.32 901.32 C 194.44 904.08 188.08 907.48 179.98 909.98 C 171.87 912.47 167.77 917.98 158.92 919.92 C 150.08 921.87 158.68 909.77 165.25 907.25 C 171.82 904.72 177.63 899.44 184.69 896.70 C 191.76 893.95 199.22 890.30 206.68 887.68 C 214.13 885.06 222.17 882.05 230.02 880.02 C 237.88 878.00 246.62 875.07 254.67 873.67 C 262.72 872.27 272.07 868.63 280.07 868.07 C 288.07 867.52 289.48 881.33 299.00 877.00 C 308.52 872.67 316.24 874.81 325.67 872.67 C 335.10 870.53 343.64 870.45 353.01 869.01 C 362.38 867.57 371.64 867.15 381.00 866.00 C 390.36 864.85 400.33 865.18 409.00 863.00
C 398.65 858.98 385.70 860.46 374.00 860.00
C 368.67 860.00 363.33 860.00 358.00 860.00
C 346.38 860.00 332.01 861.78 321.00 862.00 C 309.99 862.21 297.01 867.84 286.99 866.99 C 276.98 866.15 276.43 850.66 271.23 843.77 C 266.03 836.88 264.30 823.02 261.00 815.00
C 271.46 814.50 281.87 815.33 292.00 816.00 C 302.13 816.67 313.10 816.87 323.00 818.00 C 332.90 819.13 343.31 820.07 353.00 821.00 C 362.70 821.93 372.63 824.32 382.00 825.00 C 391.38 825.68 401.80 831.35 409.00 827.00
C 360.47 811.40 309.86 802.29 257.00 803.00
C 257.92 807.01 259.71 810.79 260.00 815.00
C 247.95 815.16 233.62 814.93 222.00 816.00 C 210.38 817.07 197.85 818.08 186.98 819.98 C 176.10 821.87 162.59 822.52 152.98 825.98 C 143.37 829.43 125.98 832.19 135.70 823.70 C 145.41 815.20 154.11 816.85 165.01 813.01 C 175.90 809.16 185.45 807.79 197.02 806.02 C 208.60 804.26 221.92 803.31 234.00 803.00
C 237.04 802.71 254.42 803.41 256.00 801.00
C 257.71 789.96 248.57 778.73 249.01 766.99 C 249.45 755.26 244.62 742.26 245.00 730.00 C 245.38 717.74 244.50 701.99 246.00 690.00 C 247.50 678.01 249.44 666.42 251.98 654.98 C 254.51 643.53 257.13 633.89 260.93 622.93 C 264.72 611.96 269.28 602.47 266.22 590.78 C 263.17 579.09 262.98 567.51 260.22 555.78 C 257.47 544.05 257.34 531.95 255.00 520.00 C 252.67 508.05 252.40 495.38 251.00 483.00 C 249.60 470.62 247.84 458.67 247.07 445.93 C 246.30 433.18 245.76 419.95 245.00 407.00 C 244.24 394.05 245.36 379.09 245.00 366.00 C 244.64 352.91 245.25 338.70 246.00 326.00 C 246.75 313.30 247.60 299.15 249.00 287.00 C 250.40 274.85 253.01 263.41 254.99 251.99 C 256.98 240.58 261.24 231.85 265.77 221.77 C 270.30 211.69 276.64 205.62 287.22 202.22 C 297.81 198.82 312.11 202.43 321.69 206.31 C 331.28 210.18 339.62 215.36 347.75 221.25 C 355.87 227.15 362.84 233.19 370.25 239.75 C 377.66 246.32 384.73 252.31 391.75 259.25 C 398.77 266.19 405.23 272.89 412.25 279.75 C 419.27 286.62 425.53 293.69 432.25 300.75 C 438.97 307.82 444.88 315.42 451.25 322.75 C 457.63 330.07 464.06 337.26 470.25 344.75 C 476.43 352.24 482.57 359.68 488.75 367.25 C 494.94 374.81 500.78 382.45 506.77 390.23 C 512.76 398.01 519.63 405.80 525.00 414.00
C 591.11 399.99 663.96 398.92 730.00 414.00
C 743.17 397.63 754.88 380.44 768.30 364.30 C 781.72 348.16 795.02 332.76 808.92 316.92 C 822.82 301.08 836.80 286.33 852.25 271.25 C 867.69 256.17 881.49 242.95 899.23 230.23 C 916.97 217.51 934.78 201.35 959.02 201.02 C 983.27 200.70 997.46 223.13 1000.98 247.02 C 1004.49 270.92 1009.96 300.51 1009.98 327.02 C 1010.00 353.54 1010.74 387.11 1009.00 414.00 C 1007.26 440.89 1006.31 469.76 1002.02 496.02 C 997.74 522.29 998.11 547.38 991.01 573.01 C 983.91 598.63 992.86 620.50 1000.00 645.00 C 1007.13 669.51 1010.14 696.59 1010.00 723.00 C 1009.86 749.41 1004.29 775.75 999.00 801.00 Z"/>
</g>
<g fill="None" fill-opacity="0.0" stroke="#141416" stroke-opacity="1.00" stroke-width="0.3"><path d="
M 256.00 801.00 
C 255.43 804.71 238.88 803.00 234.00 803.00
C 221.92 803.31 208.60 804.26 197.02 806.02 C 185.45 807.79 175.90 809.16 165.01 813.01 C 154.11 816.85 145.41 815.20 135.70 823.70 C 125.98 832.19 143.37 829.43 152.98 825.98 C 162.59 822.52 176.10 821.87 186.98 819.98 C 197.85 818.08 210.38 817.07 222.00 816.00 C 233.62 814.93 247.95 815.16 260.00 815.00
C 259.71 810.79 257.92 807.01 257.00 803.00
C 309.86 802.29 360.47 811.40 409.00 827.00
C 401.80 831.35 391.38 825.68 382.00 825.00 C 372.63 824.32 362.70 821.93 353.00 821.00 C 343.31 820.07 332.90 819.13 323.00 818.00 C 313.10 816.87 302.13 816.67 292.00 816.00 C 281.87 815.33 271.46 814.50 261.00 815.00
C 264.30 823.02 266.03 836.88 271.23 843.77 C 276.43 850.66 276.98 866.15 286.99 866.99 C 297.01 867.84 309.99 862.21 321.00 862.00 C 332.01 861.78 346.38 860.00 358.00 860.00
C 363.04 859.51 369.03 859.52 374.00 860.00
C 385.70 860.46 398.65 858.98 409.00 863.00
C 400.33 865.18 390.36 864.85 381.00 866.00 C 371.64 867.15 362.38 867.57 353.01 869.01 C 343.64 870.45 335.10 870.53 325.67 872.67 C 316.24 874.81 308.52 872.67 299.00 877.00 C 289.48 881.33 288.07 867.52 280.07 868.07 C 272.07 868.63 262.72 872.27 254.67 873.67 C 246.62 875.07 237.88 878.00 230.02 880.02 C 222.17 882.05 214.13 885.06 206.68 887.68 C 199.22 890.30 191.76 893.95 184.69 896.70 C 177.63 899.44 171.82 904.72 165.25 907.25 C 158.68 909.77 150.08 921.87 158.92 919.92 C 167.77 917.98 171.87 912.47 179.98 909.98 C 188.08 907.48 194.44 904.08 202.32 901.32 C 210.20 898.56 218.04 896.64 225.93 893.93 C 233.81 891.21 241.29 889.90 249.33 887.33 C 257.37 884.76 266.64 884.49 274.78 881.78 C 282.92 879.06 292.12 877.77 295.75 886.25 C 299.37 894.74 305.15 896.66 309.25 903.75 C 313.34 910.84 319.87 912.85 323.00 920.00
C 315.90 922.05 308.40 927.72 302.08 931.08 C 295.76 934.44 288.50 940.22 283.08 944.08 C 277.66 947.95 269.90 955.07 265.75 958.75 C 261.60 962.43 250.41 973.30 254.25 976.74 C 258.10 980.18 267.57 968.08 272.75 965.75 C 277.94 963.42 285.19 955.26 291.30 952.30 C 297.41 949.35 304.41 943.21 310.92 939.92 C 317.44 936.64 325.19 931.82 332.00 929.00
C 330.13 925.22 324.79 923.27 324.00 919.00
C 351.46 907.76 380.92 895.02 411.00 897.00
C 384.19 905.13 358.06 915.03 333.00 928.00
C 410.89 1002.53 512.78 1038.29 621.00 1041.00 C 729.22 1043.71 834.35 1004.77 916.00 935.00
C 918.02 932.98 920.30 927.70 921.00 927.00
C 908.02 925.50 896.99 914.04 883.93 911.07 C 870.86 908.11 857.53 899.28 844.00 897.00
C 851.71 893.23 864.42 898.10 874.07 899.93 C 883.72 901.75 894.70 904.78 904.02 907.98 C 913.35 911.17 921.84 915.42 931.00 919.00
C 931.36 919.23 932.00 919.00 932.00 919.00
C 938.27 913.38 941.56 906.47 947.75 900.75 C 953.94 895.04 955.79 887.83 961.75 881.75 C 967.71 875.67 980.29 882.64 988.33 883.67 C 996.37 884.70 1006.59 887.88 1014.98 890.02 C 1023.37 892.17 1032.91 894.63 1041.32 897.68 C 1049.74 900.73 1057.30 902.17 1065.78 906.22 C 1074.25 910.28 1080.68 910.62 1089.31 916.69 C 1097.93 922.77 1104.84 917.90 1095.75 911.25 C 1086.65 904.61 1083.39 902.81 1074.69 898.31 C 1066.00 893.80 1060.23 891.82 1051.68 888.32 C 1043.13 884.82 1034.81 882.51 1026.02 879.98 C 1017.24 877.44 1008.94 875.19 1000.00 873.00 C 991.06 870.81 981.30 868.98 972.00 868.00
C 979.02 850.33 989.50 833.72 994.00 815.00
C 943.72 814.60 893.78 823.17 846.00 828.00
C 890.47 812.63 937.51 803.00 986.00 803.00
C 989.48 802.66 995.21 800.99 999.00 801.00
C 1004.29 775.75 1009.86 749.41 1010.00 723.00 C 1010.14 696.59 1007.13 669.51 1000.00 645.00 C 992.86 620.50 983.91 598.63 991.01 573.01 C 998.11 547.38 997.74 522.29 1002.02 496.02 C 1006.31 469.76 1007.26 440.89 1009.00 414.00 C 1010.74 387.11 1010.00 353.54 1009.98 327.02 C 1009.96 300.51 1004.49 270.92 1000.98 247.02 C 997.46 223.13 983.27 200.70 959.02 201.02 C 934.78 201.35 916.97 217.51 899.23 230.23 C 881.49 242.95 867.69 256.17 852.25 271.25 C 836.80 286.33 822.82 301.08 808.92 316.92 C 795.02 332.76 781.72 348.16 768.30 364.30 C 754.88 380.44 743.17 397.63 730.00 414.00
C 663.96 398.92 591.11 399.99 525.00 414.00
C 519.63 405.80 512.76 398.01 506.77 390.23 C 500.78 382.45 494.94 374.81 488.75 367.25 C 482.57 359.68 476.43 352.24 470.25 344.75 C 464.06 337.26 457.63 330.07 451.25 322.75 C 444.88 315.42 438.97 307.82 432.25 300.75 C 425.53 293.69 419.27 286.62 412.25 279.75 C 405.23 272.89 398.77 266.19 391.75 259.25 C 384.73 252.31 377.66 246.32 370.25 239.75 C 362.84 233.19 355.87 227.15 347.75 221.25 C 339.62 215.36 331.28 210.18 321.69 206.31 C 312.11 202.43 297.81 198.82 287.22 202.22 C 276.64 205.62 270.30 211.69 265.77 221.77 C 261.24 231.85 256.98 240.58 254.99 251.99 C 253.01 263.41 250.40 274.85 249.00 287.00 C 247.60 299.15 246.75 313.30 246.00 326.00 C 245.25 338.70 244.64 352.91 245.00 366.00 C 245.36 379.09 244.24 394.05 245.00 407.00 C 245.76 419.95 246.30 433.18 247.07 445.93 C 247.84 458.67 249.60 470.62 251.00 483.00 C 252.40 495.38 252.67 508.05 255.00 520.00 C 257.34 531.95 257.47 544.05 260.22 555.78 C 262.98 567.51 263.17 579.09 266.22 590.78 C 269.28 602.47 264.72 611.96 260.93 622.93 C 257.13 633.89 254.51 643.53 251.98 654.98 C 249.44 666.42 247.50 678.01 246.00 690.00 C 244.50 701.99 245.38 717.74 245.00 730.00 C 244.62 742.26 249.45 755.26 249.01 766.99 C 248.57 778.73 257.71 789.96 256.00 801.00
M 309.00 553.00 
C 307.55 542.47 304.06 532.98 302.67 522.33 C 301.28 511.68 298.50 501.79 297.02 490.98 C 295.55 480.16 293.99 469.14 293.00 458.00 C 292.01 446.86 289.66 436.45 289.02 424.98 C 288.38 413.51 288.41 401.28 287.22 389.78 C 286.04 378.27 287.46 364.68 287.00 353.00 C 286.54 341.32 287.68 327.24 288.00 316.00 C 288.32 304.76 289.88 292.86 291.78 282.78 C 293.68 272.70 293.68 262.28 301.25 255.25 C 308.82 248.22 319.51 258.27 325.75 263.25 C 331.99 268.24 337.99 276.04 344.25 281.75 C 350.51 287.46 356.31 294.59 361.75 301.25 C 367.20 307.91 373.05 315.72 378.25 322.75 C 383.45 329.78 388.29 337.51 393.25 344.75 C 398.22 351.98 402.91 360.19 407.31 367.70 C 411.70 375.20 416.70 383.84 420.77 391.23 C 424.84 398.62 429.42 409.35 432.78 416.22 C 436.13 423.09 445.57 440.63 432.00 440.00 C 418.42 439.37 413.61 438.34 399.00 436.00 C 384.39 433.67 388.15 446.90 395.75 453.25 C 403.36 459.59 408.58 471.60 400.92 474.92 C 393.27 478.25 372.45 471.50 369.23 480.23 C 366.01 488.97 383.65 498.89 372.77 504.77 C 361.89 510.65 359.40 513.85 350.75 519.75 C 342.10 525.66 337.58 530.02 329.77 535.77 C 321.96 541.52 317.37 548.85 309.00 553.00
M 946.00 553.00 
C 937.95 548.42 933.43 542.22 925.75 536.25 C 918.08 530.28 913.47 526.31 904.92 520.08 C 896.37 513.85 893.80 511.31 882.92 505.08 C 872.03 498.85 887.79 490.86 886.92 481.92 C 886.06 472.99 864.68 476.49 856.00 475.00 C 847.32 473.51 851.32 459.27 859.30 453.30 C 867.29 447.34 871.42 433.96 857.00 436.00 C 842.58 438.04 838.19 438.56 824.00 440.00 C 809.81 441.44 817.52 424.78 821.31 417.31 C 825.09 409.83 829.26 400.31 833.75 392.75 C 838.25 385.20 841.81 376.17 846.77 368.77 C 851.73 361.37 855.53 353.00 860.77 345.77 C 866.01 338.54 870.92 330.31 876.30 323.30 C 881.69 316.30 886.91 309.22 892.75 302.75 C 898.59 296.28 903.48 288.64 909.75 282.75 C 916.02 276.87 922.01 269.24 928.75 264.75 C 935.48 260.25 943.65 248.27 952.69 254.31 C 961.74 260.35 960.60 272.16 963.00 282.00 C 965.40 291.84 966.10 303.93 967.00 315.00 C 967.90 326.07 967.85 339.21 968.00 351.00 C 968.15 362.79 967.36 375.26 967.00 387.00 C 966.64 398.74 966.03 411.54 965.00 423.00 C 963.97 434.46 963.05 445.79 962.00 457.00 C 960.95 468.21 958.99 478.73 957.67 489.67 C 956.35 500.61 953.44 510.18 952.02 521.02 C 950.61 531.87 947.57 542.19 946.00 553.00
M 365.00 732.00 
C 373.98 733.90 379.64 745.60 388.70 749.30 C 397.75 753.00 405.86 760.39 416.07 762.93 C 426.29 765.47 439.81 770.07 451.00 769.00 C 462.19 767.93 476.66 767.97 486.07 763.07 C 495.49 758.18 507.05 756.67 514.08 749.08 C 521.11 741.50 537.82 734.89 535.67 747.67 C 533.52 760.46 524.97 762.46 517.25 770.25 C 509.52 778.04 500.30 779.82 490.32 784.32 C 480.35 788.83 466.44 790.07 455.00 791.00 C 443.56 791.93 429.31 788.49 418.93 786.07 C 408.54 783.66 398.76 778.49 389.92 774.08 C 381.09 769.66 374.46 760.85 367.25 755.75 C 360.04 750.65 350.50 728.93 365.00 732.00
M 896.00 732.00 
C 901.92 735.11 894.20 749.01 889.75 752.75 C 885.30 756.49 879.16 764.76 873.25 768.25 C 867.34 771.73 861.01 776.93 853.77 779.77 C 846.54 782.61 838.17 786.17 829.93 787.93 C 821.68 789.68 809.96 791.06 801.00 791.00 C 792.04 790.94 781.99 789.48 773.78 787.22 C 765.56 784.97 757.48 783.23 750.31 778.70 C 743.13 774.16 737.54 772.04 731.25 765.75 C 724.96 759.45 721.52 757.36 718.68 747.32 C 715.84 737.28 729.12 738.41 734.75 745.25 C 740.38 752.09 747.81 752.50 754.70 757.31 C 761.58 762.11 769.10 763.13 777.22 765.78 C 785.34 768.42 797.01 768.98 806.00 769.00 C 814.99 769.02 825.11 766.20 833.22 764.22 C 841.33 762.25 848.23 758.40 855.23 755.23 C 862.23 752.06 869.13 746.42 875.08 743.08 C 881.03 739.74 888.66 728.14 896.00 732.00
M 895.00 860.00 
C 920.80 860.00 945.23 863.01 970.00 867.00
C 966.15 883.90 949.85 875.00 936.33 873.67 C 922.81 872.34 906.29 869.07 892.00 868.00 C 877.70 866.94 860.84 865.09 847.00 863.00
C 856.34 858.92 868.29 860.43 879.00 860.00
C 884.03 859.51 890.03 859.52 895.00 860.00 Z"/>
</g>
<g fill="None" fill-opacity="0.0" stroke="#FCFCFC" stroke-opacity="1.00" stroke-width="0.3"><path d="
M 309.00 553.00 
C 317.37 548.85 321.96 541.52 329.77 535.77 C 337.58 530.02 342.10 525.66 350.75 519.75 C 359.40 513.85 361.89 510.65 372.77 504.77 C 383.65 498.89 366.01 488.97 369.23 480.23 C 372.45 471.50 393.27 478.25 400.92 474.92 C 408.58 471.60 403.36 459.59 395.75 453.25 C 388.15 446.90 384.39 433.67 399.00 436.00 C 413.61 438.34 418.42 439.37 432.00 440.00 C 445.57 440.63 436.13 423.09 432.78 416.22 C 429.42 409.35 424.84 398.62 420.77 391.23 C 416.70 383.84 411.70 375.20 407.31 367.70 C 402.91 360.19 398.22 351.98 393.25 344.75 C 388.29 337.51 383.45 329.78 378.25 322.75 C 373.05 315.72 367.20 307.91 361.75 301.25 C 356.31 294.59 350.51 287.46 344.25 281.75 C 337.99 276.04 331.99 268.24 325.75 263.25 C 319.51 258.27 308.82 248.22 301.25 255.25 C 293.68 262.28 293.68 272.70 291.78 282.78 C 289.88 292.86 288.32 304.76 288.00 316.00 C 287.68 327.24 286.54 341.32 287.00 353.00 C 287.46 364.68 286.04 378.27 287.22 389.78 C 288.41 401.28 288.38 413.51 289.02 424.98 C 289.66 436.45 292.01 446.86 293.00 458.00 C 293.99 469.14 295.55 480.16 297.02 490.98 C 298.50 501.79 301.28 511.68 302.67 522.33 C 304.06 532.98 307.55 542.47 309.00 553.00 Z"/>
</g>
<g fill="None" fill-opacity="0.0" stroke="#FCFBFC" stroke-opacity="1.00" stroke-width="0.3"><path d="
M 946.00 553.00 
C 947.57 542.19 950.61 531.87 952.02 521.02 C 953.44 510.18 956.35 500.61 957.67 489.67 C 958.99 478.73 960.95 468.21 962.00 457.00 C 963.05 445.79 963.97 434.46 965.00 423.00 C 966.03 411.54 966.64 398.74 967.00 387.00 C 967.36 375.26 968.15 362.79 968.00 351.00 C 967.85 339.21 967.90 326.07 967.00 315.00 C 966.10 303.93 965.40 291.84 963.00 282.00 C 960.60 272.16 961.74 260.35 952.69 254.31 C 943.65 248.27 935.48 260.25 928.75 264.75 C 922.01 269.24 916.02 276.87 909.75 282.75 C 903.48 288.64 898.59 296.28 892.75 302.75 C 886.91 309.22 881.69 316.30 876.30 323.30 C 870.92 330.31 866.01 338.54 860.77 345.77 C 855.53 353.00 851.73 361.37 846.77 368.77 C 841.81 376.17 838.25 385.20 833.75 392.75 C 829.26 400.31 825.09 409.83 821.31 417.31 C 817.52 424.78 809.81 441.44 824.00 440.00 C 838.19 438.56 842.58 438.04 857.00 436.00 C 871.42 433.96 867.29 447.34 859.30 453.30 C 851.32 459.27 847.32 473.51 856.00 475.00 C 864.68 476.49 886.06 472.99 886.92 481.92 C 887.79 490.86 872.03 498.85 882.92 505.08 C 893.80 511.31 896.37 513.85 904.92 520.08 C 913.47 526.31 918.08 530.28 925.75 536.25 C 933.43 542.22 937.95 548.42 946.00 553.00 Z"/>
</g>
<g fill="None" fill-opacity="0.0" stroke="#F6F6F7" stroke-opacity="1.00" stroke-width="0.3"><path d="
M 365.00 732.00 
C 350.50 728.93 360.04 750.65 367.25 755.75 C 374.46 760.85 381.09 769.66 389.92 774.08 C 398.76 778.49 408.54 783.66 418.93 786.07 C 429.31 788.49 443.56 791.93 455.00 791.00 C 466.44 790.07 480.35 788.83 490.32 784.32 C 500.30 779.82 509.52 778.04 517.25 770.25 C 524.97 762.46 533.52 760.46 535.67 747.67 C 537.82 734.89 521.11 741.50 514.08 749.08 C 507.05 756.67 495.49 758.18 486.07 763.07 C 476.66 767.97 462.19 767.93 451.00 769.00 C 439.81 770.07 426.29 765.47 416.07 762.93 C 405.86 760.39 397.75 753.00 388.70 749.30 C 379.64 745.60 373.98 733.90 365.00 732.00 Z"/>
</g>
<g fill="None" fill-opacity="0.0" stroke="#F6F6F6" stroke-opacity="1.00" stroke-width="0.3"><path d="
M 896.00 732.00 
C 888.66 728.14 881.03 739.74 875.08 743.08 C 869.13 746.42 862.23 752.06 855.23 755.23 C 848.23 758.40 841.33 762.25 833.22 764.22 C 825.11 766.20 814.99 769.02 806.00 769.00 C 797.01 768.98 785.34 768.42 777.22 765.78 C 769.10 763.13 761.58 762.11 754.70 757.31 C 747.81 752.50 740.38 752.09 734.75 745.25 C 729.12 738.41 715.84 737.28 718.68 747.32 C 721.52 757.36 724.96 759.45 731.25 765.75 C 737.54 772.04 743.13 774.16 750.31 778.70 C 757.48 783.23 765.56 784.97 773.78 787.22 C 781.99 789.48 792.04 790.94 801.00 791.00 C 809.96 791.06 821.68 789.68 829.93 787.93 C 838.17 786.17 846.54 782.61 853.77 779.77 C 861.01 776.93 867.34 771.73 873.25 768.25 C 879.16 764.76 885.30 756.49 889.75 752.75 C 894.20 749.01 901.92 735.11 896.00 732.00 Z"/>
</g>
<g fill="None" fill-opacity="0.0" stroke="#8C8D8E" stroke-opacity="1.00" stroke-width="0.3"><path d="
M 234.00 803.00 
C 238.88 803.00 255.43 804.71 256.00 801.00
C 254.42 803.41 237.04 802.71 234.00 803.00 Z"/>
</g>
<g fill="None" fill-opacity="0.0" stroke="#6D6E6F" stroke-opacity="1.00" stroke-width="0.3"><path d="
M 986.00 803.00 
C 990.00 803.00 994.00 803.00 998.00 803.00
C 1004.00 803.00 1010.00 803.00 1016.00 803.00
C 1011.40 802.56 1003.65 801.01 999.00 801.00
C 995.21 800.99 989.48 802.66 986.00 803.00 Z"/>
</g>
<g fill="None" fill-opacity="0.0" stroke="#171618" stroke-opacity="1.00" stroke-width="0.3"><path d="
M 1016.00 803.00 
C 1010.00 803.00 1004.00 803.00 998.00 803.00
C 997.09 807.05 995.28 810.82 995.00 815.00
C 1006.10 814.38 1018.26 815.79 1029.00 816.00 C 1039.74 816.21 1050.73 818.55 1060.98 819.02 C 1071.22 819.50 1081.32 823.86 1091.00 824.00 C 1100.68 824.15 1110.42 831.42 1119.32 830.66 C 1128.22 829.90 1113.08 818.31 1105.68 817.32 C 1098.28 816.33 1086.84 811.23 1078.02 809.98 C 1069.21 808.72 1057.68 805.98 1048.00 805.00 C 1038.32 804.02 1026.27 803.00 1016.00 803.00 Z"/>
</g>
<g fill="None" fill-opacity="0.0" stroke="#606362" stroke-opacity="1.00" stroke-width="0.3"><path d="
M 358.00 860.00 
C 363.33 860.00 368.67 860.00 374.00 860.00
C 369.03 859.52 363.04 859.51 358.00 860.00 Z"/>
</g>
<g fill="None" fill-opacity="0.0" stroke="#5E6161" stroke-opacity="1.00" stroke-width="0.3"><path d="
M 879.00 860.00 
C 884.33 860.00 889.67 860.00 895.00 860.00
C 890.03 859.52 884.03 859.51 879.00 860.00 Z"/>
</g>
<g fill="None" fill-opacity="0.0" stroke="#EFEFEF" stroke-opacity="1.00" stroke-width="0.3"><path d="
M 895.00 860.00 
C 889.67 860.00 884.33 860.00 879.00 860.00
C 868.29 860.43 856.34 858.92 847.00 863.00
C 860.84 865.09 877.70 866.94 892.00 868.00 C 906.29 869.07 922.81 872.34 936.33 873.67 C 949.85 875.00 966.15 883.90 970.00 867.00
C 945.23 863.01 920.80 860.00 895.00 860.00 Z"/>
</g>
<g fill="None" fill-opacity="0.0" stroke="#ECECED" stroke-opacity="1.00" stroke-width="0.3"><path d="
M 921.00 927.00 
C 924.57 927.41 928.70 922.29 931.00 919.00
C 921.84 915.42 913.35 911.17 904.02 907.98 C 894.70 904.78 883.72 901.75 874.07 899.93 C 864.42 898.10 851.71 893.23 844.00 897.00
C 857.53 899.28 870.86 908.11 883.93 911.07 C 896.99 914.04 908.02 925.50 921.00 927.00 Z"/>
</g>
<g fill="None" fill-opacity="0.0" stroke="#908F90" stroke-opacity="1.00" stroke-width="0.3"><path d="
M 921.00 927.00 
C 920.30 927.70 918.02 932.98 916.00 935.00
C 918.21 933.11 920.91 931.09 923.00 929.00
C 925.98 926.02 928.52 922.43 932.00 920.00
C 932.00 920.00 931.80 919.40 932.00 919.00
C 932.00 919.00 931.36 919.23 931.00 919.00
C 928.70 922.29 924.57 927.41 921.00 927.00 Z"/>
</g>
<g fill="None" fill-opacity="0.0" stroke="#171719" stroke-opacity="1.00" stroke-width="0.3"><path d="
M 923.00 929.00 
C 929.56 927.99 937.54 938.44 943.92 940.08 C 950.30 941.71 957.93 949.55 963.77 952.23 C 969.61 954.91 977.52 963.23 982.75 965.25 C 987.99 967.26 996.66 980.56 1000.74 976.74 C 1004.82 972.93 993.24 962.76 989.25 958.75 C 985.25 954.74 977.44 947.95 972.08 943.92 C 966.72 939.89 959.41 934.55 953.23 930.77 C 947.05 926.99 938.88 922.58 932.00 920.00
C 928.52 922.43 925.98 926.02 923.00 929.00 Z"/>
</g>
<g fill="#FEFEFE" fill-opacity="1.00" stroke="None">
<path d="
M 0.00 1254.00 
L 1254.00 1254.00
L 1254.00 0.00
L 0.00 0.00
L 0.00 1254.00
M 999.00 801.00 
C 1003.65 801.01 1011.40 802.56 1016.00 803.00
C 1026.27 803.00 1038.32 804.02 1048.00 805.00 C 1057.68 805.98 1069.21 808.72 1078.02 809.98 C 1086.84 811.23 1098.28 816.33 1105.68 817.32 C 1113.08 818.31 1128.22 829.90 1119.32 830.66 C 1110.42 831.42 1100.68 824.15 1091.00 824.00 C 1081.32 823.86 1071.22 819.50 1060.98 819.02 C 1050.73 818.55 1039.74 816.21 1029.00 816.00 C 1018.26 815.79 1006.10 814.38 995.00 815.00
C 995.28 810.82 997.09 807.05 998.00 803.00
C 994.00 803.00 990.00 803.00 986.00 803.00
C 937.51 803.00 890.47 812.63 846.00 828.00
C 893.78 823.17 943.72 814.60 994.00 815.00
C 989.50 833.72 979.02 850.33 972.00 868.00
C 981.30 868.98 991.06 870.81 1000.00 873.00 C 1008.94 875.19 1017.24 877.44 1026.02 879.98 C 1034.81 882.51 1043.13 884.82 1051.68 888.32 C 1060.23 891.82 1066.00 893.80 1074.69 898.31 C 1083.39 902.81 1086.65 904.61 1095.75 911.25 C 1104.84 917.90 1097.93 922.77 1089.31 916.69 C 1080.68 910.62 1074.25 910.28 1065.78 906.22 C 1057.30 902.17 1049.74 900.73 1041.32 897.68 C 1032.91 894.63 1023.37 892.17 1014.98 890.02 C 1006.59 887.88 996.37 884.70 988.33 883.67 C 980.29 882.64 967.71 875.67 961.75 881.75 C 955.79 887.83 953.94 895.04 947.75 900.75 C 941.56 906.47 938.27 913.38 932.00 919.00
C 931.80 919.40 932.00 920.00 932.00 920.00
C 938.88 922.58 947.05 926.99 953.23 930.77 C 959.41 934.55 966.72 939.89 972.08 943.92 C 977.44 947.95 985.25 954.74 989.25 958.75 C 993.24 962.76 1004.82 972.93 1000.74 976.74 C 996.66 980.56 987.99 967.26 982.75 965.25 C 977.52 963.23 969.61 954.91 963.77 952.23 C 957.93 949.55 950.30 941.71 943.92 940.08 C 937.54 938.44 929.56 927.99 923.00 929.00
C 920.91 931.09 918.21 933.11 916.00 935.00
C 834.35 1004.77 729.22 1043.71 621.00 1041.00 C 512.78 1038.29 410.89 1002.53 333.00 928.00
C 358.06 915.03 384.19 905.13 411.00 897.00
C 380.92 895.02 351.46 907.76 324.00 919.00
C 324.79 923.27 330.13 925.22 332.00 929.00
C 325.19 931.82 317.44 936.64 310.92 939.92 C 304.41 943.21 297.41 949.35 291.30 952.30 C 285.19 955.26 277.94 963.42 272.75 965.75 C 267.57 968.08 258.10 980.18 254.25 976.74 C 250.41 973.30 261.60 962.43 265.75 958.75 C 269.90 955.07 277.66 947.95 283.08 944.08 C 288.50 940.22 295.76 934.44 302.08 931.08 C 308.40 927.72 315.90 922.05 323.00 920.00
C 319.87 912.85 313.34 910.84 309.25 903.75 C 305.15 896.66 299.37 894.74 295.75 886.25 C 292.12 877.77 282.92 879.06 274.78 881.78 C 266.64 884.49 257.37 884.76 249.33 887.33 C 241.29 889.90 233.81 891.21 225.93 893.93 C 218.04 896.64 210.20 898.56 202.32 901.32 C 194.44 904.08 188.08 907.48 179.98 909.98 C 171.87 912.47 167.77 917.98 158.92 919.92 C 150.08 921.87 158.68 909.77 165.25 907.25 C 171.82 904.72 177.63 899.44 184.69 896.70 C 191.76 893.95 199.22 890.30 206.68 887.68 C 214.13 885.06 222.17 882.05 230.02 880.02 C 237.88 878.00 246.62 875.07 254.67 873.67 C 262.72 872.27 272.07 868.63 280.07 868.07 C 288.07 867.52 289.48 881.33 299.00 877.00 C 308.52 872.67 316.24 874.81 325.67 872.67 C 335.10 870.53 343.64 870.45 353.01 869.01 C 362.38 867.57 371.64 867.15 381.00 866.00 C 390.36 864.85 400.33 865.18 409.00 863.00
C 398.65 858.98 385.70 860.46 374.00 860.00
C 368.67 860.00 363.33 860.00 358.00 860.00
C 346.38 860.00 332.01 861.78 321.00 862.00 C 309.99 862.21 297.01 867.84 286.99 866.99 C 276.98 866.15 276.43 850.66 271.23 843.77 C 266.03 836.88 264.30 823.02 261.00 815.00
C 271.46 814.50 281.87 815.33 292.00 816.00 C 302.13 816.67 313.10 816.87 323.00 818.00 C 332.90 819.13 343.31 820.07 353.00 821.00 C 362.70 821.93 372.63 824.32 382.00 825.00 C 391.38 825.68 401.80 831.35 409.00 827.00
C 360.47 811.40 309.86 802.29 257.00 803.00
C 257.92 807.01 259.71 810.79 260.00 815.00
C 247.95 815.16 233.62 814.93 222.00 816.00 C 210.38 817.07 197.85 818.08 186.98 819.98 C 176.10 821.87 162.59 822.52 152.98 825.98 C 143.37 829.43 125.98 832.19 135.70 823.70 C 145.41 815.20 154.11 816.85 165.01 813.01 C 175.90 809.16 185.45 807.79 197.02 806.02 C 208.60 804.26 221.92 803.31 234.00 803.00
C 237.04 802.71 254.42 803.41 256.00 801.00
C 257.71 789.96 248.57 778.73 249.01 766.99 C 249.45 755.26 244.62 742.26 245.00 730.00 C 245.38 717.74 244.50 701.99 246.00 690.00 C 247.50 678.01 249.44 666.42 251.98 654.98 C 254.51 643.53 257.13 633.89 260.93 622.93 C 264.72 611.96 269.28 602.47 266.22 590.78 C 263.17 579.09 262.98 567.51 260.22 555.78 C 257.47 544.05 257.34 531.95 255.00 520.00 C 252.67 508.05 252.40 495.38 251.00 483.00 C 249.60 470.62 247.84 458.67 247.07 445.93 C 246.30 433.18 245.76 419.95 245.00 407.00 C 244.24 394.05 245.36 379.09 245.00 366.00 C 244.64 352.91 245.25 338.70 246.00 326.00 C 246.75 313.30 247.60 299.15 249.00 287.00 C 250.40 274.85 253.01 263.41 254.99 251.99 C 256.98 240.58 261.24 231.85 265.77 221.77 C 270.30 211.69 276.64 205.62 287.22 202.22 C 297.81 198.82 312.11 202.43 321.69 206.31 C 331.28 210.18 339.62 215.36 347.75 221.25 C 355.87 227.15 362.84 233.19 370.25 239.75 C 377.66 246.32 384.73 252.31 391.75 259.25 C 398.77 266.19 405.23 272.89 412.25 279.75 C 419.27 286.62 425.53 293.69 432.25 300.75 C 438.97 307.82 444.88 315.42 451.25 322.75 C 457.63 330.07 464.06 337.26 470.25 344.75 C 476.43 352.24 482.57 359.68 488.75 367.25 C 494.94 374.81 500.78 382.45 506.77 390.23 C 512.76 398.01 519.63 405.80 525.00 414.00
C 591.11 399.99 663.96 398.92 730.00 414.00
C 743.17 397.63 754.88 380.44 768.30 364.30 C 781.72 348.16 795.02 332.76 808.92 316.92 C 822.82 301.08 836.80 286.33 852.25 271.25 C 867.69 256.17 881.49 242.95 899.23 230.23 C 916.97 217.51 934.78 201.35 959.02 201.02 C 983.27 200.70 997.46 223.13 1000.98 247.02 C 1004.49 270.92 1009.96 300.51 1009.98 327.02 C 1010.00 353.54 1010.74 387.11 1009.00 414.00 C 1007.26 440.89 1006.31 469.76 1002.02 496.02 C 997.74 522.29 998.11 547.38 991.01 573.01 C 983.91 598.63 992.86 620.50 1000.00 645.00 C 1007.13 669.51 1010.14 696.59 1010.00 723.00 C 1009.86 749.41 1004.29 775.75 999.00 801.00 Z"/>
</g>
<g fill="#141416" fill-opacity="1.00" stroke="None">
<path d="
M 256.00 801.00 
C 255.43 804.71 238.88 803.00 234.00 803.00
C 221.92 803.31 208.60 804.26 197.02 806.02 C 185.45 807.79 175.90 809.16 165.01 813.01 C 154.11 816.85 145.41 815.20 135.70 823.70 C 125.98 832.19 143.37 829.43 152.98 825.98 C 162.59 822.52 176.10 821.87 186.98 819.98 C 197.85 818.08 210.38 817.07 222.00 816.00 C 233.62 814.93 247.95 815.16 260.00 815.00
C 259.71 810.79 257.92 807.01 257.00 803.00
C 309.86 802.29 360.47 811.40 409.00 827.00
C 401.80 831.35 391.38 825.68 382.00 825.00 C 372.63 824.32 362.70 821.93 353.00 821.00 C 343.31 820.07 332.90 819.13 323.00 818.00 C 313.10 816.87 302.13 816.67 292.00 816.00 C 281.87 815.33 271.46 814.50 261.00 815.00
C 264.30 823.02 266.03 836.88 271.23 843.77 C 276.43 850.66 276.98 866.15 286.99 866.99 C 297.01 867.84 309.99 862.21 321.00 862.00 C 332.01 861.78 346.38 860.00 358.00 860.00
C 363.04 859.51 369.03 859.52 374.00 860.00
C 385.70 860.46 398.65 858.98 409.00 863.00
C 400.33 865.18 390.36 864.85 381.00 866.00 C 371.64 867.15 362.38 867.57 353.01 869.01 C 343.64 870.45 335.10 870.53 325.67 872.67 C 316.24 874.81 308.52 872.67 299.00 877.00 C 289.48 881.33 288.07 867.52 280.07 868.07 C 272.07 868.63 262.72 872.27 254.67 873.67 C 246.62 875.07 237.88 878.00 230.02 880.02 C 222.17 882.05 214.13 885.06 206.68 887.68 C 199.22 890.30 191.76 893.95 184.69 896.70 C 177.63 899.44 171.82 904.72 165.25 907.25 C 158.68 909.77 150.08 921.87 158.92 919.92 C 167.77 917.98 171.87 912.47 179.98 909.98 C 188.08 907.48 194.44 904.08 202.32 901.32 C 210.20 898.56 218.04 896.64 225.93 893.93 C 233.81 891.21 241.29 889.90 249.33 887.33 C 257.37 884.76 266.64 884.49 274.78 881.78 C 282.92 879.06 292.12 877.77 295.75 886.25 C 299.37 894.74 305.15 896.66 309.25 903.75 C 313.34 910.84 319.87 912.85 323.00 920.00
C 315.90 922.05 308.40 927.72 302.08 931.08 C 295.76 934.44 288.50 940.22 283.08 944.08 C 277.66 947.95 269.90 955.07 265.75 958.75 C 261.60 962.43 250.41 973.30 254.25 976.74 C 258.10 980.18 267.57 968.08 272.75 965.75 C 277.94 963.42 285.19 955.26 291.30 952.30 C 297.41 949.35 304.41 943.21 310.92 939.92 C 317.44 936.64 325.19 931.82 332.00 929.00
C 330.13 925.22 324.79 923.27 324.00 919.00
C 351.46 907.76 380.92 895.02 411.00 897.00
C 384.19 905.13 358.06 915.03 333.00 928.00
C 410.89 1002.53 512.78 1038.29 621.00 1041.00 C 729.22 1043.71 834.35 1004.77 916.00 935.00
C 918.02 932.98 920.30 927.70 921.00 927.00
C 908.02 925.50 896.99 914.04 883.93 911.07 C 870.86 908.11 857.53 899.28 844.00 897.00
C 851.71 893.23 864.42 898.10 874.07 899.93 C 883.72 901.75 894.70 904.78 904.02 907.98 C 913.35 911.17 921.84 915.42 931.00 919.00
C 931.36 919.23 932.00 919.00 932.00 919.00
C 938.27 913.38 941.56 906.47 947.75 900.75 C 953.94 895.04 955.79 887.83 961.75 881.75 C 967.71 875.67 980.29 882.64 988.33 883.67 C 996.37 884.70 1006.59 887.88 1014.98 890.02 C 1023.37 892.17 1032.91 894.63 1041.32 897.68 C 1049.74 900.73 1057.30 902.17 1065.78 906.22 C 1074.25 910.28 1080.68 910.62 1089.31 916.69 C 1097.93 922.77 1104.84 917.90 1095.75 911.25 C 1086.65 904.61 1083.39 902.81 1074.69 898.31 C 1066.00 893.80 1060.23 891.82 1051.68 888.32 C 1043.13 884.82 1034.81 882.51 1026.02 879.98 C 1017.24 877.44 1008.94 875.19 1000.00 873.00 C 991.06 870.81 981.30 868.98 972.00 868.00
C 979.02 850.33 989.50 833.72 994.00 815.00
C 943.72 814.60 893.78 823.17 846.00 828.00
C 890.47 812.63 937.51 803.00 986.00 803.00
C 989.48 802.66 995.21 800.99 999.00 801.00
C 1004.29 775.75 1009.86 749.41 1010.00 723.00 C 1010.14 696.59 1007.13 669.51 1000.00 645.00 C 992.86 620.50 983.91 598.63 991.01 573.01 C 998.11 547.38 997.74 522.29 1002.02 496.02 C 1006.31 469.76 1007.26 440.89 1009.00 414.00 C 1010.74 387.11 1010.00 353.54 1009.98 327.02 C 1009.96 300.51 1004.49 270.92 1000.98 247.02 C 997.46 223.13 983.27 200.70 959.02 201.02 C 934.78 201.35 916.97 217.51 899.23 230.23 C 881.49 242.95 867.69 256.17 852.25 271.25 C 836.80 286.33 822.82 301.08 808.92 316.92 C 795.02 332.76 781.72 348.16 768.30 364.30 C 754.88 380.44 743.17 397.63 730.00 414.00
C 663.96 398.92 591.11 399.99 525.00 414.00
C 519.63 405.80 512.76 398.01 506.77 390.23 C 500.78 382.45 494.94 374.81 488.75 367.25 C 482.57 359.68 476.43 352.24 470.25 344.75 C 464.06 337.26 457.63 330.07 451.25 322.75 C 444.88 315.42 438.97 307.82 432.25 300.75 C 425.53 293.69 419.27 286.62 412.25 279.75 C 405.23 272.89 398.77 266.19 391.75 259.25 C 384.73 252.31 377.66 246.32 370.25 239.75 C 362.84 233.19 355.87 227.15 347.75 221.25 C 339.62 215.36 331.28 210.18 321.69 206.31 C 312.11 202.43 297.81 198.82 287.22 202.22 C 276.64 205.62 270.30 211.69 265.77 221.77 C 261.24 231.85 256.98 240.58 254.99 251.99 C 253.01 263.41 250.40 274.85 249.00 287.00 C 247.60 299.15 246.75 313.30 246.00 326.00 C 245.25 338.70 244.64 352.91 245.00 366.00 C 245.36 379.09 244.24 394.05 245.00 407.00 C 245.76 419.95 246.30 433.18 247.07 445.93 C 247.84 458.67 249.60 470.62 251.00 483.00 C 252.40 495.38 252.67 508.05 255.00 520.00 C 257.34 531.95 257.47 544.05 260.22 555.78 C 262.98 567.51 263.17 579.09 266.22 590.78 C 269.28 602.47 264.72 611.96 260.93 622.93 C 257.13 633.89 254.51 643.53 251.98 654.98 C 249.44 666.42 247.50 678.01 246.00 690.00 C 244.50 701.99 245.38 717.74 245.00 730.00 C 244.62 742.26 249.45 755.26 249.01 766.99 C 248.57 778.73 257.71 789.96 256.00 801.00
M 309.00 553.00 
C 307.55 542.47 304.06 532.98 302.67 522.33 C 301.28 511.68 298.50 501.79 297.02 490.98 C 295.55 480.16 293.99 469.14 293.00 458.00 C 292.01 446.86 289.66 436.45 289.02 424.98 C 288.38 413.51 288.41 401.28 287.22 389.78 C 286.04 378.27 287.46 364.68 287.00 353.00 C 286.54 341.32 287.68 327.24 288.00 316.00 C 288.32 304.76 289.88 292.86 291.78 282.78 C 293.68 272.70 293.68 262.28 301.25 255.25 C 308.82 248.22 319.51 258.27 325.75 263.25 C 331.99 268.24 337.99 276.04 344.25 281.75 C 350.51 287.46 356.31 294.59 361.75 301.25 C 367.20 307.91 373.05 315.72 378.25 322.75 C 383.45 329.78 388.29 337.51 393.25 344.75 C 398.22 351.98 402.91 360.19 407.31 367.70 C 411.70 375.20 416.70 383.84 420.77 391.23 C 424.84 398.62 429.42 409.35 432.78 416.22 C 436.13 423.09 445.57 440.63 432.00 440.00 C 418.42 439.37 413.61 438.34 399.00 436.00 C 384.39 433.67 388.15 446.90 395.75 453.25 C 403.36 459.59 408.58 471.60 400.92 474.92 C 393.27 478.25 372.45 471.50 369.23 480.23 C 366.01 488.97 383.65 498.89 372.77 504.77 C 361.89 510.65 359.40 513.85 350.75 519.75 C 342.10 525.66 337.58 530.02 329.77 535.77 C 321.96 541.52 317.37 548.85 309.00 553.00
M 946.00 553.00 
C 937.95 548.42 933.43 542.22 925.75 536.25 C 918.08 530.28 913.47 526.31 904.92 520.08 C 896.37 513.85 893.80 511.31 882.92 505.08 C 872.03 498.85 887.79 490.86 886.92 481.92 C 886.06 472.99 864.68 476.49 856.00 475.00 C 847.32 473.51 851.32 459.27 859.30 453.30 C 867.29 447.34 871.42 433.96 857.00 436.00 C 842.58 438.04 838.19 438.56 824.00 440.00 C 809.81 441.44 817.52 424.78 821.31 417.31 C 825.09 409.83 829.26 400.31 833.75 392.75 C 838.25 385.20 841.81 376.17 846.77 368.77 C 851.73 361.37 855.53 353.00 860.77 345.77 C 866.01 338.54 870.92 330.31 876.30 323.30 C 881.69 316.30 886.91 309.22 892.75 302.75 C 898.59 296.28 903.48 288.64 909.75 282.75 C 916.02 276.87 922.01 269.24 928.75 264.75 C 935.48 260.25 943.65 248.27 952.69 254.31 C 961.74 260.35 960.60 272.16 963.00 282.00 C 965.40 291.84 966.10 303.93 967.00 315.00 C 967.90 326.07 967.85 339.21 968.00 351.00 C 968.15 362.79 967.36 375.26 967.00 387.00 C 966.64 398.74 966.03 411.54 965.00 423.00 C 963.97 434.46 963.05 445.79 962.00 457.00 C 960.95 468.21 958.99 478.73 957.67 489.67 C 956.35 500.61 953.44 510.18 952.02 521.02 C 950.61 531.87 947.57 542.19 946.00 553.00
M 365.00 732.00 
C 373.98 733.90 379.64 745.60 388.70 749.30 C 397.75 753.00 405.86 760.39 416.07 762.93 C 426.29 765.47 439.81 770.07 451.00 769.00 C 462.19 767.93 476.66 767.97 486.07 763.07 C 495.49 758.18 507.05 756.67 514.08 749.08 C 521.11 741.50 537.82 734.89 535.67 747.67 C 533.52 760.46 524.97 762.46 517.25 770.25 C 509.52 778.04 500.30 779.82 490.32 784.32 C 480.35 788.83 466.44 790.07 455.00 791.00 C 443.56 791.93 429.31 788.49 418.93 786.07 C 408.54 783.66 398.76 778.49 389.92 774.08 C 381.09 769.66 374.46 760.85 367.25 755.75 C 360.04 750.65 350.50 728.93 365.00 732.00
M 896.00 732.00 
C 901.92 735.11 894.20 749.01 889.75 752.75 C 885.30 756.49 879.16 764.76 873.25 768.25 C 867.34 771.73 861.01 776.93 853.77 779.77 C 846.54 782.61 838.17 786.17 829.93 787.93 C 821.68 789.68 809.96 791.06 801.00 791.00 C 792.04 790.94 781.99 789.48 773.78 787.22 C 765.56 784.97 757.48 783.23 750.31 778.70 C 743.13 774.16 737.54 772.04 731.25 765.75 C 724.96 759.45 721.52 757.36 718.68 747.32 C 715.84 737.28 729.12 738.41 734.75 745.25 C 740.38 752.09 747.81 752.50 754.70 757.31 C 761.58 762.11 769.10 763.13 777.22 765.78 C 785.34 768.42 797.01 768.98 806.00 769.00 C 814.99 769.02 825.11 766.20 833.22 764.22 C 841.33 762.25 848.23 758.40 855.23 755.23 C 862.23 752.06 869.13 746.42 875.08 743.08 C 881.03 739.74 888.66 728.14 896.00 732.00
M 895.00 860.00 
C 920.80 860.00 945.23 863.01 970.00 867.00
C 966.15 883.90 949.85 875.00 936.33 873.67 C 922.81 872.34 906.29 869.07 892.00 868.00 C 877.70 866.94 860.84 865.09 847.00 863.00
C 856.34 858.92 868.29 860.43 879.00 860.00
C 884.03 859.51 890.03 859.52 895.00 860.00 Z"/>
</g>
<g fill="#FCFCFC" fill-opacity="1.00" stroke="None">
<path d="
M 309.00 553.00 
C 317.37 548.85 321.96 541.52 329.77 535.77 C 337.58 530.02 342.10 525.66 350.75 519.75 C 359.40 513.85 361.89 510.65 372.77 504.77 C 383.65 498.89 366.01 488.97 369.23 480.23 C 372.45 471.50 393.27 478.25 400.92 474.92 C 408.58 471.60 403.36 459.59 395.75 453.25 C 388.15 446.90 384.39 433.67 399.00 436.00 C 413.61 438.34 418.42 439.37 432.00 440.00 C 445.57 440.63 436.13 423.09 432.78 416.22 C 429.42 409.35 424.84 398.62 420.77 391.23 C 416.70 383.84 411.70 375.20 407.31 367.70 C 402.91 360.19 398.22 351.98 393.25 344.75 C 388.29 337.51 383.45 329.78 378.25 322.75 C 373.05 315.72 367.20 307.91 361.75 301.25 C 356.31 294.59 350.51 287.46 344.25 281.75 C 337.99 276.04 331.99 268.24 325.75 263.25 C 319.51 258.27 308.82 248.22 301.25 255.25 C 293.68 262.28 293.68 272.70 291.78 282.78 C 289.88 292.86 288.32 304.76 288.00 316.00 C 287.68 327.24 286.54 341.32 287.00 353.00 C 287.46 364.68 286.04 378.27 287.22 389.78 C 288.41 401.28 288.38 413.51 289.02 424.98 C 289.66 436.45 292.01 446.86 293.00 458.00 C 293.99 469.14 295.55 480.16 297.02 490.98 C 298.50 501.79 301.28 511.68 302.67 522.33 C 304.06 532.98 307.55 542.47 309.00 553.00 Z"/>
</g>
<g fill="#FCFBFC" fill-opacity="1.00" stroke="None">
<path d="
M 946.00 553.00 
C 947.57 542.19 950.61 531.87 952.02 521.02 C 953.44 510.18 956.35 500.61 957.67 489.67 C 958.99 478.73 960.95 468.21 962.00 457.00 C 963.05 445.79 963.97 434.46 965.00 423.00 C 966.03 411.54 966.64 398.74 967.00 387.00 C 967.36 375.26 968.15 362.79 968.00 351.00 C 967.85 339.21 967.90 326.07 967.00 315.00 C 966.10 303.93 965.40 291.84 963.00 282.00 C 960.60 272.16 961.74 260.35 952.69 254.31 C 943.65 248.27 935.48 260.25 928.75 264.75 C 922.01 269.24 916.02 276.87 909.75 282.75 C 903.48 288.64 898.59 296.28 892.75 302.75 C 886.91 309.22 881.69 316.30 876.30 323.30 C 870.92 330.31 866.01 338.54 860.77 345.77 C 855.53 353.00 851.73 361.37 846.77 368.77 C 841.81 376.17 838.25 385.20 833.75 392.75 C 829.26 400.31 825.09 409.83 821.31 417.31 C 817.52 424.78 809.81 441.44 824.00 440.00 C 838.19 438.56 842.58 438.04 857.00 436.00 C 871.42 433.96 867.29 447.34 859.30 453.30 C 851.32 459.27 847.32 473.51 856.00 475.00 C 864.68 476.49 886.06 472.99 886.92 481.92 C 887.79 490.86 872.03 498.85 882.92 505.08 C 893.80 511.31 896.37 513.85 904.92 520.08 C 913.47 526.31 918.08 530.28 925.75 536.25 C 933.43 542.22 937.95 548.42 946.00 553.00 Z"/>
</g>
<g fill="#F6F6F7" fill-opacity="1.00" stroke="None">
<path d="
M 365.00 732.00 
C 350.50 728.93 360.04 750.65 367.25 755.75 C 374.46 760.85 381.09 769.66 389.92 774.08 C 398.76 778.49 408.54 783.66 418.93 786.07 C 429.31 788.49 443.56 791.93 455.00 791.00 C 466.44 790.07 480.35 788.83 490.32 784.32 C 500.30 779.82 509.52 778.04 517.25 770.25 C 524.97 762.46 533.52 760.46 535.67 747.67 C 537.82 734.89 521.11 741.50 514.08 749.08 C 507.05 756.67 495.49 758.18 486.07 763.07 C 476.66 767.97 462.19 767.93 451.00 769.00 C 439.81 770.07 426.29 765.47 416.07 762.93 C 405.86 760.39 397.75 753.00 388.70 749.30 C 379.64 745.60 373.98 733.90 365.00 732.00 Z"/>
</g>
<g fill="#F6F6F6" fill-opacity="1.00" stroke="None">
<path d="
M 896.00 732.00 
C 888.66 728.14 881.03 739.74 875.08 743.08 C 869.13 746.42 862.23 752.06 855.23 755.23 C 848.23 758.40 841.33 762.25 833.22 764.22 C 825.11 766.20 814.99 769.02 806.00 769.00 C 797.01 768.98 785.34 768.42 777.22 765.78 C 769.10 763.13 761.58 762.11 754.70 757.31 C 747.81 752.50 740.38 752.09 734.75 745.25 C 729.12 738.41 715.84 737.28 718.68 747.32 C 721.52 757.36 724.96 759.45 731.25 765.75 C 737.54 772.04 743.13 774.16 750.31 778.70 C 757.48 783.23 765.56 784.97 773.78 787.22 C 781.99 789.48 792.04 790.94 801.00 791.00 C 809.96 791.06 821.68 789.68 829.93 787.93 C 838.17 786.17 846.54 782.61 853.77 779.77 C 861.01 776.93 867.34 771.73 873.25 768.25 C 879.16 764.76 885.30 756.49 889.75 752.75 C 894.20 749.01 901.92 735.11 896.00 732.00 Z"/>
</g>
<g fill="#8C8D8E" fill-opacity="1.00" stroke="None">
<path d="
M 234.00 803.00 
C 238.88 803.00 255.43 804.71 256.00 801.00
C 254.42 803.41 237.04 802.71 234.00 803.00 Z"/>
</g>
<g fill="#6D6E6F" fill-opacity="1.00" stroke="None">
<path d="
M 986.00 803.00 
C 990.00 803.00 994.00 803.00 998.00 803.00
C 1004.00 803.00 1010.00 803.00 1016.00 803.00
C 1011.40 802.56 1003.65 801.01 999.00 801.00
C 995.21 800.99 989.48 802.66 986.00 803.00 Z"/>
</g>
<g fill="#171618" fill-opacity="1.00" stroke="None">
<path d="
M 1016.00 803.00 
C 1010.00 803.00 1004.00 803.00 998.00 803.00
C 997.09 807.05 995.28 810.82 995.00 815.00
C 1006.10 814.38 1018.26 815.79 1029.00 816.00 C 1039.74 816.21 1050.73 818.55 1060.98 819.02 C 1071.22 819.50 1081.32 823.86 1091.00 824.00 C 1100.68 824.15 1110.42 831.42 1119.32 830.66 C 1128.22 829.90 1113.08 818.31 1105.68 817.32 C 1098.28 816.33 1086.84 811.23 1078.02 809.98 C 1069.21 808.72 1057.68 805.98 1048.00 805.00 C 1038.32 804.02 1026.27 803.00 1016.00 803.00 Z"/>
</g>
<g fill="#606362" fill-opacity="1.00" stroke="None">
<path d="
M 358.00 860.00 
C 363.33 860.00 368.67 860.00 374.00 860.00
C 369.03 859.52 363.04 859.51 358.00 860.00 Z"/>
</g>
<g fill="#5E6161" fill-opacity="1.00" stroke="None">
<path d="
M 879.00 860.00 
C 884.33 860.00 889.67 860.00 895.00 860.00
C 890.03 859.52 884.03 859.51 879.00 860.00 Z"/>
</g>
<g fill="#EFEFEF" fill-opacity="1.00" stroke="None">
<path d="
M 895.00 860.00 
C 889.67 860.00 884.33 860.00 879.00 860.00
C 868.29 860.43 856.34 858.92 847.00 863.00
C 860.84 865.09 877.70 866.94 892.00 868.00 C 906.29 869.07 922.81 872.34 936.33 873.67 C 949.85 875.00 966.15 883.90 970.00 867.00
C 945.23 863.01 920.80 860.00 895.00 860.00 Z"/>
</g>
<g fill="#ECECED" fill-opacity="1.00" stroke="None">
<path d="
M 921.00 927.00 
C 924.57 927.41 928.70 922.29 931.00 919.00
C 921.84 915.42 913.35 911.17 904.02 907.98 C 894.70 904.78 883.72 901.75 874.07 899.93 C 864.42 898.10 851.71 893.23 844.00 897.00
C 857.53 899.28 870.86 908.11 883.93 911.07 C 896.99 914.04 908.02 925.50 921.00 927.00 Z"/>
</g>
<g fill="#908F90" fill-opacity="1.00" stroke="None">
<path d="
M 921.00 927.00 
C 920.30 927.70 918.02 932.98 916.00 935.00
C 918.21 933.11 920.91 931.09 923.00 929.00
C 925.98 926.02 928.52 922.43 932.00 920.00
C 932.00 920.00 931.80 919.40 932.00 919.00
C 932.00 919.00 931.36 919.23 931.00 919.00
C 928.70 922.29 924.57 927.41 921.00 927.00 Z"/>
</g>
<g fill="#171719" fill-opacity="1.00" stroke="None">
<path d="
M 923.00 929.00 
C 929.56 927.99 937.54 938.44 943.92 940.08 C 950.30 941.71 957.93 949.55 963.77 952.23 C 969.61 954.91 977.52 963.23 982.75 965.25 C 987.99 967.26 996.66 980.56 1000.74 976.74 C 1004.82 972.93 993.24 962.76 989.25 958.75 C 985.25 954.74 977.44 947.95 972.08 943.92 C 966.72 939.89 959.41 934.55 953.23 930.77 C 947.05 926.99 938.88 922.58 932.00 920.00
C 928.52 922.43 925.98 926.02 923.00 929.00 Z"/>
</g>
</svg>